<mxfile host="app.diagrams.net" modified="2021-05-19T15:15:01.615Z" agent="5.0 (Windows NT 10.0; Win64; x64) AppleWebKit/537.36 (KHTML, like Gecko) Chrome/90.0.4430.212 Safari/537.36" etag="iKf3Xya0JAvSOMUT9Skj" version="14.6.13" type="github" pages="3">
  <diagram id="8mBtZfeuUfxPGBJ9VakQ" name="Page-1">
    <mxGraphModel dx="1069" dy="577" grid="1" gridSize="10" guides="1" tooltips="1" connect="1" arrows="1" fold="1" page="1" pageScale="1" pageWidth="827" pageHeight="1169" math="0" shadow="0">
      <root>
        <mxCell id="0" />
        <mxCell id="1" parent="0" />
        <mxCell id="_Y8NyX96kEcPQYaUL2pN-1" value="" style="endArrow=classic;html=1;" edge="1" parent="1">
          <mxGeometry width="50" height="50" relative="1" as="geometry">
            <mxPoint x="120" y="320" as="sourcePoint" />
            <mxPoint x="640" y="320" as="targetPoint" />
          </mxGeometry>
        </mxCell>
        <mxCell id="_Y8NyX96kEcPQYaUL2pN-2" value="" style="endArrow=classic;html=1;" edge="1" parent="1">
          <mxGeometry width="50" height="50" relative="1" as="geometry">
            <mxPoint x="120" y="399.9999999999998" as="sourcePoint" />
            <mxPoint x="640" y="399.9999999999998" as="targetPoint" />
          </mxGeometry>
        </mxCell>
        <mxCell id="_Y8NyX96kEcPQYaUL2pN-3" value="" style="shape=image;verticalLabelPosition=bottom;labelBackgroundColor=#ffffff;verticalAlign=top;aspect=fixed;imageAspect=0;image=data:image/png,iVBORw0KGgoAAAANSUhEUgAAAEkAAABMCAYAAAAhvppvAAAeWklEQVR4Ae2c91dT6dqGv3/sW9/MmRkFO0V6BwVE7HV0HMc2YgcVK0UFexsLxUYREAgBQu9FJJQ0IL1xfevdSTSoo3F0zjk/TNa6194Jm529r9zP8z5vSf6Hfx6fJfA/nz3inwP4B5IPJvgH0j+QfCDgwyH/OOkfSD4Q8OGQf5z03wJpdnaWWacTp8OBw2bFbjZh089gndJiUaswT45jHldiHhvFrHyDeUxo1PXa5DgWjQrrlA6bwYDDYsZptzHrdCCdV5x7dtaHW/30IeIcTnGNTucH5/tbnOR98Z43d9hs2ExGzDoteuUbpvq60SrkqF5VMl5WytiThyiL7qN8fBdl0T2UJfcZe/qI8fInTNZVoWltZnqwH+PEONaZKewClsP+pzf2aSQf/lXAsYlrtNmkc3of8U0hic/TA0jcgLgR6/QUpgklM4N96NoVqOurGSsrZeThHYav5zOQe5re7CN0Zx6g++heuo78RvfR3+g+tpfuzN/pOXOUvrwzDN64zJvH9xmveIZG/orprlYMrwcwqwS0aTe0d+7yvklf9gUki8UiSex7P74JpLdghGVnhWUd2MxGTKpxprrbGK94wvCtK/SdPUH3od107NlC2441tG5OpWV9Eoq18SjSY1GsjkGRFk2zR6tjaE6Po3ldIoqNybRuS6d992a6Du2m/3wmI/dvMFlTwXR/NyYRkiYTDofjbch4rsv7hv9s/98CSYCx26xY9NMYJ5RM93RIoTTy4Ba9507Qvm87LRuTaUqOoDEhkIaYJTRELaYhchENkQslySMXItQQsUCSLGIBsvAF1If5Ux8m9hfSEL2MxqRQWjaspOv3nQzknGb08V1U9dVM9XZhnBjDatDjsLvCRoDy5fG3QxIX4bTZsMxMMT3Yy3jFU4YKc+k5up/2nRtQbEimKS2GxqQwGuOCkMcslQDJIhch9BZS1CIXJDc08boAVR8uIPkjC1tAQ7gAuZjGuECak8NpXZ9I+8519Bzfx9CNS0xUl6MfGcZqMko5C1yJ/XOw/h5Is678I1oau1GPaWwUXWsTyicP6TufSfvuLTSnxdMYtxx5bCDymGXIo4WWIo/ydtF7kKLePf8AUqg/DZL8aAj1Qx7mhzxiAfLoJTSviqb9ty3055xm/EUpU13tmFUT2AUsu/1trvwzV30zSJ4Yl7bOWZwOp5Q0Z4Z6mah6Tn/eaTr2b6dlcypNq6JpTAyhMTaQxpgAl0SoRC+lMWoJ8qjFyIVzPiKPs6Rw83bSe5AawvwREiHZIM6bFIpi/Uo69+9g8MoF1PWvMIy+wSpKB8enk/rfAMmJ3WLBrNVIeUD5ooi+3JO07lhLY3I48oRg5LFuMB5AYusFqdFXSG9zkj+yj0EK9UcW4ke90HI/ZBGLJVhtOzcwePkik1XlzAwNYJmZlmo0zwf9vqO+GSRxYvEmIkmbdRo07QpGHt+l8/g+mrek0pgSiTw+GHlcoMtBsYE0/YmTvjUkAUomIIWKpC9AhdG6eRW9Jw8xXvaE6cE+rPpp6do/BuqbQhJFoWVah66nndePbtOReQD5+kTq4wKQxQQgjw5wuUjA+RaQPhdubie9hSRAeWBFLaFlwwopR4qCVT/cj83oavkEKO/HN4MkTiwKN01PB8PF92k99CuyNXHUJgTzKmoJ9VFLkEUvpUEkae8w8+x/Ybh9LnFLOWkOpPnIlgv5SSEoC/WTWkFRi/VkHmS88jkzI8PYjIYPuh5fDUkwF/0um9nE1NAAQ6UPaDmZQd2aeKoiF1EdsZCaiIXURi5+D9Syd0k7RiTtL0vcXwVJgjUPWeh8GiIWSnVVf94ZJmoqMIyNSjWdAOMx1FdBkgAJB5lMzIwpeVNdTuOJA7xcE09lXACV4QuoCl/gghSxiDovUK4m39P0u5v/j5QA77dwf966uZt+0fxLJYA/cpHMRT6ScpLHSZ7tPGTL5yELmU9jfBAtW9Lou3gSTYsc87QOu9WK0+mqo0Tr95e7Jc7ZWWxOBzqtmt42ObJbl3ixOYUn4Qt4HupHeagfL8P8qQ5fwKvwhdR6gWqIWuqujTygvGqkt9X2h2XAHEhzWrf3IIW6IL3LRx44nq0bUvBPrpYxJoC2Xzbw5tFddL1dmKem3nZjvgqSY9aJ2W5laHSA4qe3uZb1K3dTw3i8/CeeLJ/Hi5B5VIT6URXmT03YXFCySFE0vgMl9htEIRkpuiOeLomosl3ywPFs53ZLRAnggiScIyS5yFMCLPejPni+JFnwfCQJFy2fR33wT9SL/VA/mlbF0HX8AKMlD9C/eY3d7hpJ+CpIAtCEQUtdTwNn7p3i94NpXFy5jFvBP/A4+EeeBf9EWcg8KgWo0Lmg6iMX4w3KBckNKnoJDbEByBOX05QSQdPqWJrXxtO8LkFS09o4GldHIU8NRbYyAFniImQJC2iI93PLH3mCS7J4f2RxfpIa4vwQksfP99I85HFCP9GUFkDbb6kMXj3FVE8zVvMMDodNctQXhZunjhBbnWkGxXgvN5uL2X7nAOmHEzmwaikXQn/kTtAPlAb+wPPgn6gImcfLkPlUC1DhC96FndtN7wC5Qk7UUnIBZ+NKWvZspf3YPjqzj9J1IVNS59nDtGXuRnFoPfLf4pBtD0a2ZRGyTf40bPanYYs/8q0LvCSe+9O41Z/mbS4ptvkh1CK03Y/W7X607VpM58FQhgp2oG19gnlqBIfV+NcgiSEPh9PB6PQkxT3VHHmZz8pbO4jOTGD9lmAyEhZwJeRHHgb8iydBP1AmQC13gwrzn5OfhJuk0kA4Z0UYzWsTpOq8PWMXnWeO01WYT8/9u/QUF9Hz9Imk7pJHdD+6Qdfd83QUHqQtZystp5NRnIik+UggisOLaRE6IrSI1qOLaDu2iPbji+g8sZiuzMV0Zy6mN3MxfVku9Z9czMDpJQyeXcabW+loGi9jHJdjN2lwOOxflriFg6QxIYedbtUQ52V3WP8og6hrmwg9t5LYg7Fs2hRMduQ8bi39jscB3/Ms8AfKgn6kcvk8qkL9PshP9THLkCWF0LRlFR2nDzFw9ypvKl8w2ihnuKWDvtZeOhT9tDYP0NrcT4eil772LoY7FLxpq2VEXsRg+Xl6H+6i62oCnXlBdOUF0J2/lJ78pfReXkr/laUMFC5j6FoAr68HMHozkLFbgYzfDmRC6E4QE/eCmLwfjOrJSnTygxgG/8CmF7nJisVi9nXQTTSJTqx2G9NmA/UjbewvO0/MzW2EFq4lKDeV5adXsnJvFPuTFpIT9C/uBHxPybLveR74A+XBP70LO5HIRWsXvQxZShRNO9bRdvoIvY//oE8mp6tjGEW3mto2HWXNUxTLdDysFdJSLNNSptBS16GmtW+C3r5ehjored1QyOCLvQw8SmPwfhRDd4MZvhfEyP1ARh8EMfYoiPHHwUwWL0dTGoLuSQhTT0OYehbC1PNQl16EMlUZx1T9RvTd57HqOrBZDZjNRt8gzeIaXdRbTAzpxijurmJb0VFCC9YSfGU1QfmrCMpJJfpoPBvWB3Ioej6Xgv7Fg6XfURrwL14E/egOOz8pP72KXEJdYihNOzfQfTWXwcpy+hXtNCpGeFg1QU6xmiN31Px2VcPOAg3bL7u084p4TcXxe5NceT7JU5mSjp5B3vQ3MdpehLI+G+XzdYwVRzJREoaqNAT101C0z0LRPQtj6nkY02VhzJSFoS8PY0aoIoxpSeFMv4xm6lUS+rYMLKo6bCY1ZqPeR0juWQONcZpGZTcFzY9Jv7+XoEtpBF1a5VYaYadXkLQ7nG2rlpAd+iM3l37Ho2Xf81SEXfBPVC6fT1WIP68SliPfmk7b2UwGXlbQ0zFAXcs492s0nLivYdslNaln1MRnqok5riH6mEsxx9TEnVCRdnaSXQUqzhWpKWnQ0NylZGigk/HuUiZlh1FXrkFbHoeuLJzp8nBmKsLRV0Sgr4zA8HKu9FUReDRTHcl0TTT6ll+wKJ9inRnGbNB9GaSxGRXP++vJrCkk+c4uAi+tmqPgC8mEH48nbUcIh2Pmk7/sO+4s/Y6iZSI//Uh58HxehvhTn55A+/ks+p6V0tvSSU3zGHmlk+y5qmb9BQ0rT2mJP6El5piWaKGjWqLcij6qIe6EmuRTGjblaDh4S8W1sgmaupQoh1tQdd9B23yYqVdpTFdGMvMyAr1QVQSGqkj01S4ZaiKZqygMNVHoX0VhUGzFNHIbs64Fo34Cs8UsNVjend8PJgJE0nY4nVKo3W57xp4XZ4m/ud0FKH8VgUICWF4KgedFEo/m51WLyQr9gYJl3/HHkv+jRIRdiB8vxajALxvpf3yfPkUH9YpRblWq2V2oIuW0cIqAoiPSrbf7R3REHtERcUTr0mEtccc1rDqj4sBNFY/rNbT3vkY5VIeu9ypT8u1M18Shr47GUO0B4gJhECCEaj2KxlgbjbHOLcUGTEO5mCarMM6MYLaYfINkdzrpUY+QI/+DjY+PEHVtM4H5qQRe8pJ4npdCeFY8yT8vZ+eKBZwL/o7bi/6XR0u/41nEIqrT41FkZfC6rob2rjFulU9y8KaaNec0xB0X7nkHyANKbCMkQJ6tC1TUUQ2xx1Wsv6ji5AMNRXUT9A0OoXtdxlRrBtP1q9DXxmN8Ff1OAoZHAkq9UAxGWSymBrda1mHqz8I0VoRxegCzxfh5SFJfzeGgY3KQrFfXSLm/l/DC9R9CcgMLPreC8Ixo0jcFcjziBwqX/C/3lv4fT2IDqN21kfbCPAZb2qnr0HHygZZ1FzQkZmqJEm7xcpH3/lxILkeFH9YQdkhNYqaKrflqckrUKHrVaJTN6DrPMd24FYMsGWNdzDsJIB7JBJwYjAKOPO6dWtIx9R7E9OY2xqkezGYx1Gv3jrYPF3EJSFaHnZbxPg5V5RN/e4fU9AdcSpnrpEupBAg35SQTdCaJpL0R7Evy50Lgd9wQkJJCacw6SGfRI9qb+yiV6dhzTUfSSR2xx+cCehtWcxzkcZKO8MNaPJCijqhIyprk9xsqatq0jI92oe29yUzb7+gb0zE0xEpOmeMWuQDjVmMcpsY4zI3x0tbUkoapazem1wUYtZ2+QXJ1aG00jXWzv+ICUTe3srwgnT+DFJCXQkBuCtHHY9m0YRlHoudxOeh7SlOjabl0jq7KaurlQ9yq1LI1XyeF2Nvc43aSL5DCDmkIzVATlqEi4tAkP19S8USuZeh1P6qBEma6T6NXbMAgj8Po1lvHuMEIOBKgpnjMTfGYmuIwtaRi6tyBcSgXg7bdR0hOJ0abhYbRTva+OEvE9c1SfRSQ/zEnpSBeF6BCshOJ2xvOlrVLORv+E8XpCbTdvkqHTEF5/Qh5zzRszNFIrZd3aH2YgzzOEe55Jw8kD6gtuWru1YgEPsj4UCUzfXno27ZgaIrH6HHJn8ARgFyQ4jEpUjB2bMM4eBGDps03SHanA4PNTMNoO3uenyH82iaCL6+WYMxJ3FK4uSEJgBdWsDwzjpRdoRxOWMDdTcm0PLxDR1MnT+tGOV+iYd1FjdS8fwkkAWeOJDep2XRRzY1KDY1dw4wO1TIzUIi+fRvGZuEQt3yF1L4F48B5DJrWvwIp2wuSV8vm3cq5YQXmJhN4fgWxh2LYvmYZub+kIS++R0dzF0/rlJwr1rL+wtwm3wPr/UTtcdAc93jBCs/QsOmihusVWuRdrxkdkjEzeA19+3YXpGaXUzyO+dRWOMn0pZBEz98oOamDvc/PECE5Kd2VpN+D43GWFHIi7PJTCD+VQOovoRzNWMfL0ju0NrbzvH6UnCdaNlz0HZI3IBFiUpgJUBkawjPUbM7RcKtKi6JH1Eu1zPQXYGjbhlG4SEDyFZSA1LEV4+AFjL46SRSSZpuVptEu9pWdI/L6FpZfEZBSpOQtEvinFHR+BRHHYthxdhNFxddorGvgZeNrrpZr2JwnuhzaD5p+bycJF30MkAeUBOugiq25ah7VaekZHGJisIKZnhwMLZtdLZY73D7lINffROJOwdi5DePQRYxaH3OSmDWw2my0KHs4WJFD7M3thFxZ4zOkwNyVBJ5LZHX+Fi4/zqWipoLa1kEe1GnYWaghLlOAer8EmNvcfwpSxGE1scdU7C5QUdasZWSkD3X/Y2a6sjAq1v8FSKkYu3ZiGM7H6Gvr5ikm2ycGOFZ9haQ7uwgrXPtJ98xxVn4yAlRSwWYOPsjidtUjGnt7qWzVknFHQ3K2qLZFt2Pqvcr6XasmIH0MVEiGAKQm/ZyKrD9UNHSqUSnb0fUVMNO+B2PzakyNn89HbxO7KAFaV2Ps2Ytx5BoGXZdviVv03US3pFv1mjP1t0l/8DvhVzf4DskdjpEF69lwex/ZZYXU9bfS0Ksi56maHQUakk+5K+73ikfvhP0+JFFtCxelZqvZf0PNrcpJugZGmVLWMd1zGn3LJozNyVLL9rkwmwOpbS2m/qMYlfcxTvX51i0Rk3UO5ywDWiUFihJ+Lj1J9PUtLMtP/iwocYxHyy+nEV24iV9LsnjWVUvT4ChPmlRcLNGwKVf0wzREig6sVy30p5AOiWNFh1jN9stqrldokHUoGRnpZvp1CfrOAxgVqzA1J0n1z+cgSUndk9zbN2IeOodp4hmmmSEsFpM0KuvdL/nIKIAL0siUikfd1RyszCPh5s9fDEmEYNDlVaTf30N+wx+86FZQ2z1CSYOaE/fVbMpVk3xaQ+wxDVFHNB8UjlLIZaiJFDnouHCQhm2X1WQ/VlGumKRvqI/x4Qqm+vIxtG13AWpO8K1V8wAS285tmN8UYtbWYzYopSFcMXTt/fgoJDGrOaHXUT3cwrn626Tc/dXnxP1+foq+vpntxSe4UHefmr52mvsnKJWryH2i5pcCtTRkIgbYBJTwOVITfkhF3HEV6efU7L2hobBcy4vmSZp7X9M/UIeyMw9N62/oFasxNyX45iJRbbshmZoTMHXtwjLxCKu+G7NJjdVq+fzqWxFuAtKUyUDn5BB32p6y/sEByRUCgCecfNkuzVvJ8surib2xnV9KT3Kn5Qk1fW3U9rzmadMEeU9VZNxWs+Oyho0XNaw/r2HtOSFReGrYnKPm1ysqyXmF5SpeKMaQdfch66yjtfUWr5v3o2lKx9C0wndAbkim5kSMLSnSCIBV8xKbWYnFPO0bJGEzkbxFrTRp0FEx0MCO0hOEFK6VRgHEjfuuFQTkJUugRMjuLM3ifN09nnc10TgwQkOPiqpWHY9qtVwv15L3RMuFYiEd+U91Uqe4RKbhVbsWWfc41Z09PG+u4NHLHMoq9zAgW8dU0wqMX+Iiqd+WgEmRjLF9I6bBM9hnWrBbp7FYjFil9QE+LFF2jU46MNssKMZ6OFKVT+KdnYQUpH8BoJUszV3h1kqp/xdzYxtbi46TW3+P0s4aavpbkfX3Ud01TFnrG0qblBTJxylqGKe0UUl562uqOweo7emivL2BO7UlXC3L4XbpL5Q/T2O4Lgm9z4Wjd2mQgKk1HWPPPsyjN3AYB3DYLVjFunNfIXncZHc46Ne8oVBRzI7SLER+kVz09uY9ED6/FY4Kvpwmzd2l3f2NncWZHKssIK/+MfcUVZR0NFHW3UFlTw+V3T286GjjsaKe63XPyH5xk30PzrD56m/sv7aBopJUOquSUMniMYpax92r/2yr5jlO5KT2zZiGL2JRV+KwTkgDbSIffREkD6gJvZbKwUaya2+Sene3FHLLRMj9BVCu/1kp9QPDCzeQencPO0qyOFp5iYv1tylsfCRNp99sKuZK/R9kV15lX9EZ0q/uI+nCRlacSWTfpWgqn8QyVhfHtBhhbIr7snzUlIhZkYy5ew+WsYfY9N047TPSkK0A9MWQBCiD1cSQVklx90u2Fx8ntGCdNJT7JZCW5CTxTsJ1K6VzhF5ZQ9TVjSTe2EbK7Z2k3f2V1Xd3s/rOblJu7CTh8hYiz68lMCuZqJPx/JwTw+U7MbRXCECucSOf3SNcJEYkm1diat2Auf8UVk09DquaWadYp+SUAP0lSHannRmLQerwnqy5Stq9vYQVrP0iJ70D5A3LvZ/r9VpuEotzklh8MZGFZ+Pxz4ph/tEI/DJCScgK4/T1aCqexPLmlRh6/YIm3x1mUqXdsgZT90HMb25jN/TjdJiZnXV91eIvO0ksnBBT3sPSbG41R1/mk3Tz57e5aUlu0meBeSCJm/fWkpxEhBa/lQvQovMJLMiOZf7xSPyPhLHsSCibzkfwuCiWgVfxaBuEK7wT8ef2XXnLKJr9jh2YRq5h1TZgt0zidNqkaf2vcpJo6cQJdCY97ZMD3Gt/zs/Fx4i8ukEKGQFpyZz8JKB5ucMr1LwBif0PISWy6EICC8/G4X8ymnlHw1l6NIyVp8M5cTUKuZipbUzAIAB9KSTFSgztGzH2Z2FRvcRmeoPDLhaYiubedY9/2UmeBG5x2NCaZmhSdnFBdodNjw9LU00iPFygPGDc7nC7xgNirmO83eO1fzGRRefjWZAdg19mJD8dDiMyM4yMgmjJRf018V/Y5LtCUgz+G1vXYew/gXnsEXZDH067nlmnTQIk7vGrnCRBEidxz+wqZ9S8GGggu/YGa+/vJ+zKWgLzU1ygvMPHE1ru1z4L6WICiy7Eu1x0Khr/ExEsOhpK2tlwrv8Ri6IyngmZa+z6S5K1SSRqkYd6fsesvId1ugWnTSPlIeEgz+OrIXmDMljNjExN8HKgkcyqQheogrXv3CSF33uueptzvFzj9doiD6BzcZKL5p+IZPGJcKJOhbH3SgQvn8UxJktgWsyCeGodsfXuqHrvexK1OF4CdAjz6C1sMy3u1swsPva3LhL3900gSaDcbrLYbAxrxyjpriGrulDq20Vd3UDQpdR3sLxd5QXkXZJ2AZMAXUxg4fk4FpyJwf9kFPOPRbA8K5wtuRFcuhdFZ1Uc+qYE1/i1D5CkjqvodrSux9RzUAJk1TXgsE4yOytCbC6gbwrJA0pQ11tNvJ4ap3qoiQv1t9ledIzoqxullk4KrYsJLBYO8UELRZidi8U/Owq/rAjmHw0jMTuC83eiqXkRy2idqKzfc5E3LI9zxDHNCRgVie4knYlZ+Qe2mVacVhWzzg8dJO5JPL6Zk9znc51UlAYOG8oZFVVDTVyS/8GukkxW3NxB2JU1LMtLlmqez0ISgNwu8jsVycKscIIzw9mWG0lJSSyDtfHo5J8G5BppTMDYvBJj61oMYkZ24CTm8cfYpgUgkYPE/P67HOR9L38bJM+KOJPNIi1hbh3v41HHS7KqCllzf79UmQtQAtLii/GSqxbnJEg10VtwHkCSi6KZnxlB4MkI0i9GkX0rhsaKOLTyeGlW9oP843aWGNM2NsZJwyWGlvUYug9iGrmBRV2N3diP06Zl1mn5aIh5g/pbnCTeQHwunq9VTJuN9Kje8KxXRvarm+wsyWT13d+IvbaZ0Cvp0jId0ZUR9ZEEyRvQmWiEi/xOhBOTHcGhazEUFcdJLpJmZL2TspihlZQojWkbFekYWzdj7NiDsfektCDLomuUxoecDuPbOuhTLvrbnOT9KQhQNoedKbOBkalJWsf6edFbz2X5Q34vu8Dq+/uIuLqJwLxUF6T3AM0/FYl/VjgLT4SQfiGc2w9jaa9KkHr5UmvmhiQtcBBz/c0JGBQpGNo2Yeg6gHEwD/NoEVZNAzb9AHaLCoddAPp0iHnfw9/mJO83cY1BiS6MHaPVgnJag/xNFw87KzlTe4s9z86w+WEGabd/JenGdmIKNxJ2aQ3BOaksO7uC4DPxxJ2NYf/VeKpfrGSiIZXpplRMijRMYg1R6zpMbZswiqnsrl0YezMwDpyV1hWZVTVYZ/pwWLQ4HaKzape+ei9Sgq+PfwskcTFSF8ZdJoiRTVGhj0xP0jk5SN3rVp50VXGjqYjsmusceH6ebY+OkX57H4lXfmb1lY3sv7mOG0Xr6Xi1EZ1iM9Nt29F37JLcYug9gXHgAqaR65jHi7BoqrBNt2A3DuKwqNwVtFUKL3EdXwJIXPu/DdL7n5r4HB3uRWFiTfibqQnax/p5OdDEw45KChqLOFdzi+MvLnPmxUXuV5+jXn4WZedZDP0XMAzmYhy+gnHkFiblY8yTlVh0TdiM/ditEzhF38vdQfXdM+9fpev5fwySeHvxiYqFYSJniTCcMukRA3miau/XjNI9OUy7so8uZQ/DE91MqrswTHVLg2E2fY/UzxJusZtGsFvGcVg1bteIIQ47uDuoH79131/9j0LygJICQPotgXf9QLE4QwwRC4A28fsC0reFbDic4tchxC/biGEMIfG9fvGVdSFPtfy13pkLUED6t/ygy9y3/fNn4vakvOH+WR/ReRbjVgKAt1wu8YYi/eefn/gr/iLl03/nTwN9xbX+V/7rBzO4/5VX+R++qH8g+fAB/APJB0j/DyR7ljLYlsaAAAAAAElFTkSuQmCC;" vertex="1" parent="1">
          <mxGeometry x="90" y="290" width="28.82" height="30" as="geometry" />
        </mxCell>
        <mxCell id="_Y8NyX96kEcPQYaUL2pN-4" value="" style="shape=image;verticalLabelPosition=bottom;labelBackgroundColor=#ffffff;verticalAlign=top;aspect=fixed;imageAspect=0;image=data:image/png,iVBORw0KGgoAAAANSUhEUgAAAEwAAABGCAYAAABmDHJNAAATaklEQVR4Ae2b93dU17mG8+/cOPFKnJtcx3Ec35V7k2BcwNjENtVgbGPTJFFMMQaMDbgDxoRuikASEiDTEVUVJKGGeht1aTQqo9HMnLP3Ke9d7z46llCQpZEE1z/orLXX0czs057zlff7NvwCE1tEBH4R0eyJyZgAFqERTACbABYhgQinT1jYBLAICUQ4fcLCJoBFSCDC6T9LC7NtgOPnuD1yYARhWoAmbXQHbbR22aj1WihvtnCv3kJBnYV8T/8oqrdQ0mihqtVCQ4cNX4+NoG5DmoD1/wD1kQNzYbX5CcXEhTwDB65LbE2WWBMnEH1YYOkhgSWHBJZ9L7AyVmBjksDOSxJxmQZSy0x42i30aA60R22FjwQYrUoYQFfQRl27hbu1Dqh9KRIbTgq8s1fHtK80/M9mDU+v1/DHdRqeXKvhqXUant2o4fltGmZ/qyHmiI4vz0okZhlILzeVVbb5bYSFraztURjcQwdGWJYFdARs3PWYiM+UWJ8gMG+Xjmmfa/j7xxr+sl7Dk6tD+N2qEH6zIoTHlzvjN8tDeGJlCL9fHcLT68L46wYNL27R8MY3OqK/F9h1WSLlnoHGDgvCcKA9bIt7qMAIK6QDjR02MitMHLwmseKojslbNTzxQQi/ig7hP5aG8MtlITwW5XwmrN+ucAaB/TrG+Y1z3Hn87tmPNMz7TsfWZKHcurzJUjHRsB5uwnhowNzg3uCzcSbbwOYkgdk7dPx1o4bf98EiABcYIfx2ZQh/WBPGnz/S8MxHdMkw/nO1Y20EOhDaEytC+PM6DVM/07DkoI49KRLF9ZZKCIT2sLaHBiwkHMu6es9UcerVLx23cx+alvRfq0PKzaZu0zBju44Fu3UsOqAj5ojA8qMM/joW7tUxZ6cOHv/cJxqe+VBTbuoCpMv+9wYN7+7VcSLdUJmW2ZcZ9GHEtIcCjNbV3GXjXJ6Bj5OEeljGqMdj+qwkKoQn14Txylcalh/VseeKxNkcA6mlJnJrHElBeZFXayGrwkRKoYnYNInNpwTe2q0rQL9e3u/GhPa/HzvQeC6658OKaeMOjPrIH7KRXWOq+PLaNxqeWhP+Mf7QHf++2Yk/n5wWiM+SKmu2dDnuRNmhrIPJwgZ06WTXihYLl4sM7L4sseyQjqmfa/jTOk0lCFoboT27QcPiAzrO5xlo6LAQEuNvY+MOrCdsK6F5PM3A/F06/rQ2DAZvPhTdcPIWDR/GC8RlGMipMdWDUW5owoYbsN3H5J4ZlpIkoNmghChttHC1yMSOCxKvbdfxhzUONCYQQpvymYbNpwUuFhpo7XbPNH4RbVyB0RWbOm2cvWtgfbxQkuGXfcGalvXcpxqiDutIumMoDRUIR/5AtDiv30ZauYlPz0i8vl3H0+s0PBYdAq/19FoNs3bq+OaCVC+OsMezIhg3YIRlmEBxg6VUO+MT45YK8lEh/G2ThtXHBRIyDZQ1WSAszo90o8URWnOnrcTrzosS077Q8PiKkIJGSfLMeg1LD+q4WWIqsUxo47WNGzA3dt0qMfH+foGn1jquQrlA4Tlrh46jtwwFtCcUuWUNfmBCa++xcaPYxMpjAi9u01Tgp2yZ9Imm4tyVQgOMjXT38drGDVhQs1HTZuFkhqGUuBu3lCtu0bA2TiCz0gRhEe5YN9fSWJSfSHcy6IpjOqKO6Fgdp2PXZaHqzgafhZD+MwTG0ud2lYmdFwVe2hbGY9FBPBYVxF/Wh/H2Xh37rknVlRgrqMHHU3PlsYgvMHAiU+JImkTcbYmLRQby60w0dbHWHD9NNi4WZts2mjotnMkVWJcQxqQtQTy+ohe/Wh7A81tD2HJGx9V7hgrWgx94rJ/dor6py0K110Jpi4XiFgtlXgsN3RY6Qza0vsA/HnY2KmC8sLBs+KWJFk2iJqjhVmMQOzL9eP9kJybv8uGpbT78cUsHXt3bhS9u9OBSVQiV3QLd0lTHjvXmKUF6pY32kA2P30ZJh4W8Vgu3m0yk1pu4WWcird7E7SYLBW0Wyjss1PU480OGDXOUlUDEwPigpm2jUxoo7AnhYls3Dnq8+LS4CVGZ9Xjzai2mn6vB1NM1mHKqFjMu1CE6sxFfl7QhubkbBT0hdEhDnWO00HgcYVV3W7jZYOJQsYFttyU+vCmxMkUg+pJA1EWBmMsCq65KrL8l8eUdiWMlhprfELAQ7oMWqYWPGBhv0rBt9EgTnpCOrM4AEhp8+KqiGSsKPHg7uxJzMsoxM61UjRmppZhxqwyz0soxP6sSMfm1+KK8GXENPmR2BtQ5aKHSGllbhtenngoZQHOvjfw2Cz8wZuZKRF8VmJksMDVBx+TjOiYd0/GPo87++RM6Xj6pY26yjpXXhJp/ocbEvXYLbUEbYYMGMHJsIwZGWL2GhbJAGPENPmwra8QH+TVYlF2Jt7LKMSejDDPTSzEjraR/pDrwZqeXYX5WuZq7Kr8WW8saFbiSnpBya0Ib7p4JS1pAQ8DGuRoTX2cbWH5F4s1kgVdP6njxhI7nYh1QhPX3I/3Q+P1LJ3RMP6ljfrJA9BWBHTkSqQ0mGgMOtJEiGxaY+2YZe0p6wkhu7sTG4nq8nV2BORkEVKwAzUovxZzMMryZRYtyBv/md/zNBcljeOyG4jqcavIhvzuIVk0ibFrKTQffOK9PC+gRNmq6bVzxmNiaJbHgnMDUeAeKC2dyrI4XTujq+5cTdEyJ7wPZZ3GcR+t7IU7Hu+cEvss1VKxr7HESw0gsbVhgqgC2bFT2ajhW14719+rxnnK/UsxMd6yJ+7lZZXgnpxKL82oQU+BRY0leDd7NqcTczH7r41xCW5hdgdWFtdhT3YqMjgCa+6ANBsaH0EwbFV0WYksNfHhLYh7dL07Hc8f6LYmu+PJJgRnJAm9fEFh4SeCt846rEtykAdZHaC/H61jwg8BnGRLpDaZyT2bT4bZhgfHNN2oC17x+bCqux/zbFZid4cCaRWu5XY6Yu9XYcK8OX1Q0YVdNK/Z5vNjv8eK7mlZ8WdGEDUV1ag7nqmPTSpT70vpW5NfiUK0Xab4A6kMCQdNSsdK1rG7dRhklS5WJNTclXj8t8MLxflBTTuiYc1pg8QWBdTelCv7f5knszpfYcVcqa1xzXeL9CwJvnBLKdd0YR1d956zAwQID2S0WOsP2sMt7wwLz6hLX23uwq7oFUXer74M173a5spKjnjbcbO9GoT+Iqt6wkhmUGvy7sDuIm95ucM6aQg/eIvA+F2XMY/yLuVuD7eXN6qXUhnQFjZbF9F/aYeHQPQMrr0vM7IM16ajjirQqWttnmRKJ5SaymiyUdViooibrdvbF7Zb6PqHMxLpUidnJDjTXjRn/oq4IHCg0UN1lqyVA1sVDbUMC4zEM9NW9Gr73ePFBoQcLbperWES3eudOBdYVeXCgtg13ugJo1QQ00wJFrLvxb37H37I7e3HY41VWujinEm/2xTZCm51RhtUFtTjd1ImSgIYuYaJLc7RVUoWJFdckXk0SKgO62W9aghOHtmZInK8xUd5pqTg34PLqNqjXAsKx0rhyAxvSJeYkCzzPbMr1heO6OvdHt6TSbD1c8/yJFveQwAiL7pHfFcTnpY14+44T5AmLbsUMmdjQjgJ/EG26VGCozwZv/I7QfLpERSCMy61dKsMuyq1W0AiMrvlhkQcXW7tQ1avDq5ko8VnqrS+/KjHj1P2wGLTfOy9wIN9ARoOJOr+toDzoQXlLhObXbdT6bVyoNbH6hsT0JAcaXwChLb0o8EOlidpuC0H578/hPteQwHTLAt3xlteP9YUelelmppVgbl/A/qKsETmdAfilobSUe8Kh9pZtg+ekyyW3dOJL6rf8GizNrVJuvbuqBRm+AMr9Ene9pnIxwnolUYDZz7UsutCiiwI7smkRplL6+giKeVeWVHTa2FNgYPElAVopXZPjrWSB/fkG7rSY6NRGASxgmKjoDeNMUwdW5VWDsCgNGLjpisfq25W7RiY8qeVMNIaFEq/7PG34troFp5s7kNkRQFVAILfNxJ58AzEpUgXpgbBejNfVgx67Z+BuiyM8CYswhts4hfMoVq/VmfjmjsTc00LB+tthHTOTBD7NkErjtfQOfcIhLaxLGMjt6sVRjxfRuVWYkeroLQpVZj6WRNRPkW7OjdvKetM6A0hp96PQH0ZZt0ROq4n4MhPRKVJJBBcWs9k/E3UsuSSwK9dQNWP3KP+pgIpnHRbiSwwsPNsPjKJ21TWB2BID9T2jAMaYk+brwd7qFizLqXSApRZjWU4V9tc42sk3ylYmb0ezLLQLA41hiYZeA7ebTXyXJ1XGep0Bvs8NCWtKgo6llwViix1YLLjZUxuJZQ1+odRatKBLNSaWnHeA0SVf6bvG/kIDtT+xFjCkhbXrEjfb/fiuqhlLs/uB0dqOeLzI6QqCVjjajQ8rTMDLflarpWAQCutBQmLM4v61JIFlVwR25xmqfmTwflBwH+l98JodYRs36kwsuyjUdQiM8ez9SwJ78iVquodOkz8JLNXXg38NsjACO+xpQ3ZXLzrHAIw3TunAWEQ3o7vR7QbCmpogEHVFIq7URIHXgo+W1bcMN1JAg+cx5vnCNq55TCy7cD+wRZcE9haMEliHMFRH4mBtK6Jy+mJYajGW5lSCGe1me4+KQ4NvaLjPAy2LsI4WGVjMLm28U+qoNB+rg27JWLY330Ch19FYY7Es976CEqp/Rgmx6Fy/SzL7xqQIfH/PUL+78wfvh7Qwtl7Y74qvb8fy3GrMSHWy5MI7Ffi4pAGJTZ1oCOn3CdXBJ3/QZ9clcppN7MyRSiLwZt1yhbFrWqJA9FWJk2VOG4YuNFbLcu+FkuFOi6UkBKUE3ZFZ8vVEAYrXxAqng+HOH7wfEhhFK/teF1u6sCa/9sfWDTsR0Xm12F3diiJ/CEHDVBXB4BMP/kzLoju09trIbjZxuNBQ9R1FKK3qH0d0FehZ78VcldhXaKDY54hICs+xbrw+obM7m1RhYGOqxIykfgujxPgm28D1OhPen1jVGhIY9RVbOlkdAXxcXK/UuCpj+uq/TffqcaWtW0El3OE2wuKNZDWZ2J7tFMPMTITFt8zYRZFKscq6kLBoDYT1gAJiuMv92++ExRZRTouFbVkSc5OF6pHx2hzvnhU4UWKoCoPl0VDbkMBUrLFslPaEsKuqGUtyq1QpQ/FKERuVW4U91S246u1GZW9YJQB2NlhSDXxA1Z5hlzRgI7PRxIECQ5U17FsNtCyWP6wZDxQZqj/P8mQsluXoPceqCYqNwrutFo4XOzGTls0wwBbRlDgdq1KkSgQUtj/V5hkSmHvBxrCO5OYObC1twHt3Kn4UsPMzy1T3YltZA5KafCprUsEHDQsGO6h91JTuCdpIazDx1W2JheecksS1rOdjdVXXrboucarSVLCYPcdqWU4IsFVGLO20cLHWxFd3pMrGFKluzCSseWeF6vkzuQzXsh4SmGuSXdLAXX8QJ+rbVSybp7oMjpWxH/Z+TiW2lDbgiKcNKa3dyOkIoKg7iFJ/CKX+MO6260jxSOzJk3jnXH/By0BLV2DX4LVTAgRGV2Rfiqs8bMuMZtzzWuAobLOQ22IpvRVfauDzvi7twGzMMDD7jMCmdL4sQ1nhQO9wGQzcDwuMy2nUW2zP7KhoxtLcahCa65pzM8qU5VGfrc2vxaaiOnxaXI8txY3YUtSCjbk+LL8exIIfnC6na1lu7KBL8CFmnhFKza+5IVUjkCtAoxnrePwNCTYNP7gqEX1ZKKuefbq/S8t7ICyK5OUpAsmVpuqh9Y7gnxQMC8xxTRtNYYHzLV34ml2GvBosUAsffb161pmpxSq2sX8/O70cs29V441r9Zh+3osXTwYwKVb7MYW7sLh3b56rOyyux2MwPvF8bNu4Qti9Jl8QF0xmnRZKd+3LdwJ9SDrNw4HW9KC/hwXGgwgtZFpoCOuqvvxXTatqybBzoboYfcDUggiX125U4J9X6jD1TDteSOjBpNjQj9nQvfGBe0JjTBnvwfNyuNfi3y/F6arryrWBUxWmcnvGTCb64dyRLEYEzIXGDNiiCdzw+fG9pw1bS+pV64fq/93b5ZifWY45qZWYca0O08+34qWTfkw+HsbkWE1pLIrSRzKOO7GRlsSgTvlCzUWhysXdLZkS8eWG6tJGmo1HDMyFRunAxmJ5IIR0nx+nGn34tqoZG4rrEZPnwbuZjZh7xYfXf+jB9FMhvJKoYdpJfWQjkSp/9OOVRGo5tpyZSHS1uDv/nMCSKwIb0pwy61yVidxWS7Vw2OqJNBtHBIzQuLm9enY0SgMhXGv3I6GxA/ur27G9uBPbsoPYnK5jU5pQinrDLYkRjVSJDWMYVO8b0yQ2pUl8kiGVQN2eY4AtG0oWtpA8fkv9MwPKDoaaSLdRAeNF2Ktny7nHMJXFsa6s6dVQ4ddR2mGo2MDleKb4oiGGKwHc39VnHjMOg2sCXEGq7LRVf6spYKtlNNcFRwOLzz1qYA96M7Q8Dr69gYNqn0H1vjFgjvp9wOeBx47lb0IZLZgHPd+4A3Mv4t7offu+/wPJTKRG38PcN2ecv3PvZzz342ph43ljP9dzTQCL8M1MAJsAFiGBCKdPWNgEsAgJRDh9wsImgEVIIMLpExY2ASxCAhFOn7CwCWAREohw+v8BgwvqqtzbftEAAAAASUVORK5CYII=;" vertex="1" parent="1">
          <mxGeometry x="89.41" y="370" width="30" height="27.63" as="geometry" />
        </mxCell>
        <mxCell id="_Y8NyX96kEcPQYaUL2pN-5" value="" style="endArrow=none;html=1;dashed=1;strokeWidth=1;dashPattern=1 1;strokeColor=#757575;" edge="1" parent="1">
          <mxGeometry width="50" height="50" relative="1" as="geometry">
            <mxPoint x="120" y="419.9999999999998" as="sourcePoint" />
            <mxPoint x="120" y="280" as="targetPoint" />
          </mxGeometry>
        </mxCell>
        <mxCell id="_Y8NyX96kEcPQYaUL2pN-6" value="" style="endArrow=none;html=1;dashed=1;strokeWidth=1;dashPattern=1 1;strokeColor=#757575;" edge="1" parent="1">
          <mxGeometry width="50" height="50" relative="1" as="geometry">
            <mxPoint x="600" y="419.9999999999998" as="sourcePoint" />
            <mxPoint x="600" y="280" as="targetPoint" />
          </mxGeometry>
        </mxCell>
        <mxCell id="_Y8NyX96kEcPQYaUL2pN-7" value="" style="endArrow=none;html=1;dashed=1;strokeWidth=1;dashPattern=1 1;strokeColor=#757575;" edge="1" parent="1">
          <mxGeometry width="50" height="50" relative="1" as="geometry">
            <mxPoint x="280" y="419.9999999999998" as="sourcePoint" />
            <mxPoint x="280" y="280" as="targetPoint" />
          </mxGeometry>
        </mxCell>
        <mxCell id="_Y8NyX96kEcPQYaUL2pN-8" value="" style="endArrow=none;html=1;dashed=1;strokeWidth=1;dashPattern=1 1;strokeColor=#757575;" edge="1" parent="1">
          <mxGeometry width="50" height="50" relative="1" as="geometry">
            <mxPoint x="439.9999999999998" y="419.9999999999998" as="sourcePoint" />
            <mxPoint x="439.9999999999998" y="280" as="targetPoint" />
          </mxGeometry>
        </mxCell>
        <mxCell id="_Y8NyX96kEcPQYaUL2pN-9" value="" style="endArrow=classic;startArrow=classic;html=1;dashed=1;dashPattern=1 1;strokeColor=#757575;strokeWidth=1;" edge="1" parent="1">
          <mxGeometry width="50" height="50" relative="1" as="geometry">
            <mxPoint x="120" y="300" as="sourcePoint" />
            <mxPoint x="280" y="300" as="targetPoint" />
          </mxGeometry>
        </mxCell>
        <mxCell id="_Y8NyX96kEcPQYaUL2pN-10" value="RTT" style="text;html=1;strokeColor=none;fillColor=none;align=center;verticalAlign=middle;whiteSpace=wrap;rounded=0;" vertex="1" parent="1">
          <mxGeometry x="180" y="290" width="40" height="20" as="geometry" />
        </mxCell>
        <mxCell id="_Y8NyX96kEcPQYaUL2pN-11" value="" style="endArrow=classic;html=1;strokeColor=#757575;strokeWidth=1;" edge="1" parent="1">
          <mxGeometry relative="1" as="geometry">
            <mxPoint x="120" y="320" as="sourcePoint" />
            <mxPoint x="200" y="399.9999999999998" as="targetPoint" />
          </mxGeometry>
        </mxCell>
        <mxCell id="_Y8NyX96kEcPQYaUL2pN-12" value="HTML" style="edgeLabel;resizable=0;html=1;align=center;verticalAlign=middle;" connectable="0" vertex="1" parent="_Y8NyX96kEcPQYaUL2pN-11">
          <mxGeometry relative="1" as="geometry" />
        </mxCell>
        <mxCell id="_Y8NyX96kEcPQYaUL2pN-13" value="" style="endArrow=classic;html=1;strokeColor=#757575;strokeWidth=1;" edge="1" parent="1">
          <mxGeometry relative="1" as="geometry">
            <mxPoint x="210" y="400" as="sourcePoint" />
            <mxPoint x="290" y="320" as="targetPoint" />
          </mxGeometry>
        </mxCell>
        <mxCell id="_Y8NyX96kEcPQYaUL2pN-14" value="&amp;nbsp; &amp;nbsp;" style="edgeLabel;resizable=0;html=1;align=center;verticalAlign=middle;" connectable="0" vertex="1" parent="_Y8NyX96kEcPQYaUL2pN-13">
          <mxGeometry relative="1" as="geometry" />
        </mxCell>
        <mxCell id="_Y8NyX96kEcPQYaUL2pN-15" value="" style="endArrow=classic;html=1;strokeColor=#757575;strokeWidth=1;" edge="1" parent="1">
          <mxGeometry relative="1" as="geometry">
            <mxPoint x="200" y="400" as="sourcePoint" />
            <mxPoint x="280" y="320" as="targetPoint" />
          </mxGeometry>
        </mxCell>
        <mxCell id="_Y8NyX96kEcPQYaUL2pN-16" value="JS,CSS,HTML" style="edgeLabel;resizable=0;html=1;align=center;verticalAlign=middle;" connectable="0" vertex="1" parent="_Y8NyX96kEcPQYaUL2pN-15">
          <mxGeometry relative="1" as="geometry" />
        </mxCell>
        <mxCell id="_Y8NyX96kEcPQYaUL2pN-17" value="" style="endArrow=none;html=1;strokeWidth=2;strokeColor=#FF0000;" edge="1" parent="1">
          <mxGeometry width="50" height="50" relative="1" as="geometry">
            <mxPoint x="359.9999999999998" y="419.9999999999998" as="sourcePoint" />
            <mxPoint x="359.9999999999998" y="310" as="targetPoint" />
          </mxGeometry>
        </mxCell>
        <mxCell id="_Y8NyX96kEcPQYaUL2pN-18" value="" style="shape=curlyBracket;whiteSpace=wrap;html=1;rounded=1;flipH=1;shadow=0;glass=0;sketch=0;rotation=-90;size=0.5;" vertex="1" parent="1">
          <mxGeometry x="295" y="294" width="10" height="40" as="geometry" />
        </mxCell>
        <mxCell id="_Y8NyX96kEcPQYaUL2pN-19" value="" style="shape=curlyBracket;whiteSpace=wrap;html=1;rounded=1;flipH=1;shadow=0;glass=0;sketch=0;rotation=-90;size=0.5;" vertex="1" parent="1">
          <mxGeometry x="335" y="294" width="10" height="40" as="geometry" />
        </mxCell>
        <mxCell id="_Y8NyX96kEcPQYaUL2pN-20" value="&lt;font style=&quot;line-height: 80% ; font-size: 11px&quot;&gt;recv JS,CSS&lt;/font&gt;" style="text;html=1;strokeColor=none;fillColor=none;align=center;verticalAlign=middle;whiteSpace=wrap;rounded=0;shadow=0;glass=0;sketch=0;" vertex="1" parent="1">
          <mxGeometry x="262.18" y="260" width="75.63" height="20" as="geometry" />
        </mxCell>
        <mxCell id="_Y8NyX96kEcPQYaUL2pN-21" value="" style="endArrow=classic;html=1;strokeWidth=1;exitX=0.1;exitY=0.5;exitDx=0;exitDy=0;exitPerimeter=0;" edge="1" parent="1" source="_Y8NyX96kEcPQYaUL2pN-18">
          <mxGeometry width="50" height="50" relative="1" as="geometry">
            <mxPoint x="360" y="280" as="sourcePoint" />
            <mxPoint x="300" y="280" as="targetPoint" />
          </mxGeometry>
        </mxCell>
        <mxCell id="_Y8NyX96kEcPQYaUL2pN-22" value="recv HTML" style="text;html=1;strokeColor=none;fillColor=none;align=center;verticalAlign=middle;whiteSpace=wrap;rounded=0;shadow=0;glass=0;sketch=0;" vertex="1" parent="1">
          <mxGeometry x="305" y="290" width="70" height="20" as="geometry" />
        </mxCell>
      </root>
    </mxGraphModel>
  </diagram>
  <diagram id="9HaSGpjm-bA_x6nzDvDd" name="Page-2">
    <mxGraphModel dx="1550" dy="780" grid="1" gridSize="10" guides="1" tooltips="1" connect="1" arrows="1" fold="1" page="1" pageScale="1" pageWidth="827" pageHeight="1169" math="0" shadow="0">
      <root>
        <mxCell id="03ISFg3FK-GgMzTYB2Pi-0" />
        <mxCell id="03ISFg3FK-GgMzTYB2Pi-1" parent="03ISFg3FK-GgMzTYB2Pi-0" />
        <mxCell id="gbgX2ZyU5q0YuarfaIco-0" value="" style="endArrow=classic;html=1;" edge="1" parent="03ISFg3FK-GgMzTYB2Pi-1">
          <mxGeometry width="50" height="50" relative="1" as="geometry">
            <mxPoint x="120" y="320" as="sourcePoint" />
            <mxPoint x="639.9999999999998" y="320" as="targetPoint" />
          </mxGeometry>
        </mxCell>
        <mxCell id="gbgX2ZyU5q0YuarfaIco-1" value="" style="endArrow=classic;html=1;" edge="1" parent="03ISFg3FK-GgMzTYB2Pi-1">
          <mxGeometry width="50" height="50" relative="1" as="geometry">
            <mxPoint x="120" y="399.9999999999998" as="sourcePoint" />
            <mxPoint x="639.9999999999998" y="399.9999999999998" as="targetPoint" />
          </mxGeometry>
        </mxCell>
        <mxCell id="gbgX2ZyU5q0YuarfaIco-2" value="" style="shape=image;verticalLabelPosition=bottom;labelBackgroundColor=#ffffff;verticalAlign=top;aspect=fixed;imageAspect=0;image=data:image/png,iVBORw0KGgoAAAANSUhEUgAAAEkAAABMCAYAAAAhvppvAAAeWklEQVR4Ae2c91dT6dqGv3/sW9/MmRkFO0V6BwVE7HV0HMc2YgcVK0UFexsLxUYREAgBQu9FJJQ0IL1xfevdSTSoo3F0zjk/TNa6194Jm529r9zP8z5vSf6Hfx6fJfA/nz3inwP4B5IPJvgH0j+QfCDgwyH/OOkfSD4Q8OGQf5z03wJpdnaWWacTp8OBw2bFbjZh089gndJiUaswT45jHldiHhvFrHyDeUxo1PXa5DgWjQrrlA6bwYDDYsZptzHrdCCdV5x7dtaHW/30IeIcTnGNTucH5/tbnOR98Z43d9hs2ExGzDoteuUbpvq60SrkqF5VMl5WytiThyiL7qN8fBdl0T2UJfcZe/qI8fInTNZVoWltZnqwH+PEONaZKewClsP+pzf2aSQf/lXAsYlrtNmkc3of8U0hic/TA0jcgLgR6/QUpgklM4N96NoVqOurGSsrZeThHYav5zOQe5re7CN0Zx6g++heuo78RvfR3+g+tpfuzN/pOXOUvrwzDN64zJvH9xmveIZG/orprlYMrwcwqwS0aTe0d+7yvklf9gUki8UiSex7P74JpLdghGVnhWUd2MxGTKpxprrbGK94wvCtK/SdPUH3od107NlC2441tG5OpWV9Eoq18SjSY1GsjkGRFk2zR6tjaE6Po3ldIoqNybRuS6d992a6Du2m/3wmI/dvMFlTwXR/NyYRkiYTDofjbch4rsv7hv9s/98CSYCx26xY9NMYJ5RM93RIoTTy4Ba9507Qvm87LRuTaUqOoDEhkIaYJTRELaYhchENkQslySMXItQQsUCSLGIBsvAF1If5Ux8m9hfSEL2MxqRQWjaspOv3nQzknGb08V1U9dVM9XZhnBjDatDjsLvCRoDy5fG3QxIX4bTZsMxMMT3Yy3jFU4YKc+k5up/2nRtQbEimKS2GxqQwGuOCkMcslQDJIhch9BZS1CIXJDc08boAVR8uIPkjC1tAQ7gAuZjGuECak8NpXZ9I+8519Bzfx9CNS0xUl6MfGcZqMko5C1yJ/XOw/h5Is678I1oau1GPaWwUXWsTyicP6TufSfvuLTSnxdMYtxx5bCDymGXIo4WWIo/ydtF7kKLePf8AUqg/DZL8aAj1Qx7mhzxiAfLoJTSviqb9ty3055xm/EUpU13tmFUT2AUsu/1trvwzV30zSJ4Yl7bOWZwOp5Q0Z4Z6mah6Tn/eaTr2b6dlcypNq6JpTAyhMTaQxpgAl0SoRC+lMWoJ8qjFyIVzPiKPs6Rw83bSe5AawvwREiHZIM6bFIpi/Uo69+9g8MoF1PWvMIy+wSpKB8enk/rfAMmJ3WLBrNVIeUD5ooi+3JO07lhLY3I48oRg5LFuMB5AYusFqdFXSG9zkj+yj0EK9UcW4ke90HI/ZBGLJVhtOzcwePkik1XlzAwNYJmZlmo0zwf9vqO+GSRxYvEmIkmbdRo07QpGHt+l8/g+mrek0pgSiTw+GHlcoMtBsYE0/YmTvjUkAUomIIWKpC9AhdG6eRW9Jw8xXvaE6cE+rPpp6do/BuqbQhJFoWVah66nndePbtOReQD5+kTq4wKQxQQgjw5wuUjA+RaQPhdubie9hSRAeWBFLaFlwwopR4qCVT/cj83oavkEKO/HN4MkTiwKN01PB8PF92k99CuyNXHUJgTzKmoJ9VFLkEUvpUEkae8w8+x/Ybh9LnFLOWkOpPnIlgv5SSEoC/WTWkFRi/VkHmS88jkzI8PYjIYPuh5fDUkwF/0um9nE1NAAQ6UPaDmZQd2aeKoiF1EdsZCaiIXURi5+D9Syd0k7RiTtL0vcXwVJgjUPWeh8GiIWSnVVf94ZJmoqMIyNSjWdAOMx1FdBkgAJB5lMzIwpeVNdTuOJA7xcE09lXACV4QuoCl/gghSxiDovUK4m39P0u5v/j5QA77dwf966uZt+0fxLJYA/cpHMRT6ScpLHSZ7tPGTL5yELmU9jfBAtW9Lou3gSTYsc87QOu9WK0+mqo0Tr95e7Jc7ZWWxOBzqtmt42ObJbl3ixOYUn4Qt4HupHeagfL8P8qQ5fwKvwhdR6gWqIWuqujTygvGqkt9X2h2XAHEhzWrf3IIW6IL3LRx44nq0bUvBPrpYxJoC2Xzbw5tFddL1dmKem3nZjvgqSY9aJ2W5laHSA4qe3uZb1K3dTw3i8/CeeLJ/Hi5B5VIT6URXmT03YXFCySFE0vgMl9htEIRkpuiOeLomosl3ywPFs53ZLRAnggiScIyS5yFMCLPejPni+JFnwfCQJFy2fR33wT9SL/VA/mlbF0HX8AKMlD9C/eY3d7hpJ+CpIAtCEQUtdTwNn7p3i94NpXFy5jFvBP/A4+EeeBf9EWcg8KgWo0Lmg6iMX4w3KBckNKnoJDbEByBOX05QSQdPqWJrXxtO8LkFS09o4GldHIU8NRbYyAFniImQJC2iI93PLH3mCS7J4f2RxfpIa4vwQksfP99I85HFCP9GUFkDbb6kMXj3FVE8zVvMMDodNctQXhZunjhBbnWkGxXgvN5uL2X7nAOmHEzmwaikXQn/kTtAPlAb+wPPgn6gImcfLkPlUC1DhC96FndtN7wC5Qk7UUnIBZ+NKWvZspf3YPjqzj9J1IVNS59nDtGXuRnFoPfLf4pBtD0a2ZRGyTf40bPanYYs/8q0LvCSe+9O41Z/mbS4ptvkh1CK03Y/W7X607VpM58FQhgp2oG19gnlqBIfV+NcgiSEPh9PB6PQkxT3VHHmZz8pbO4jOTGD9lmAyEhZwJeRHHgb8iydBP1AmQC13gwrzn5OfhJuk0kA4Z0UYzWsTpOq8PWMXnWeO01WYT8/9u/QUF9Hz9Imk7pJHdD+6Qdfd83QUHqQtZystp5NRnIik+UggisOLaRE6IrSI1qOLaDu2iPbji+g8sZiuzMV0Zy6mN3MxfVku9Z9czMDpJQyeXcabW+loGi9jHJdjN2lwOOxflriFg6QxIYedbtUQ52V3WP8og6hrmwg9t5LYg7Fs2hRMduQ8bi39jscB3/Ms8AfKgn6kcvk8qkL9PshP9THLkCWF0LRlFR2nDzFw9ypvKl8w2ihnuKWDvtZeOhT9tDYP0NrcT4eil772LoY7FLxpq2VEXsRg+Xl6H+6i62oCnXlBdOUF0J2/lJ78pfReXkr/laUMFC5j6FoAr68HMHozkLFbgYzfDmRC6E4QE/eCmLwfjOrJSnTygxgG/8CmF7nJisVi9nXQTTSJTqx2G9NmA/UjbewvO0/MzW2EFq4lKDeV5adXsnJvFPuTFpIT9C/uBHxPybLveR74A+XBP70LO5HIRWsXvQxZShRNO9bRdvoIvY//oE8mp6tjGEW3mto2HWXNUxTLdDysFdJSLNNSptBS16GmtW+C3r5ehjored1QyOCLvQw8SmPwfhRDd4MZvhfEyP1ARh8EMfYoiPHHwUwWL0dTGoLuSQhTT0OYehbC1PNQl16EMlUZx1T9RvTd57HqOrBZDZjNRt8gzeIaXdRbTAzpxijurmJb0VFCC9YSfGU1QfmrCMpJJfpoPBvWB3Ioej6Xgv7Fg6XfURrwL14E/egOOz8pP72KXEJdYihNOzfQfTWXwcpy+hXtNCpGeFg1QU6xmiN31Px2VcPOAg3bL7u084p4TcXxe5NceT7JU5mSjp5B3vQ3MdpehLI+G+XzdYwVRzJREoaqNAT101C0z0LRPQtj6nkY02VhzJSFoS8PY0aoIoxpSeFMv4xm6lUS+rYMLKo6bCY1ZqPeR0juWQONcZpGZTcFzY9Jv7+XoEtpBF1a5VYaYadXkLQ7nG2rlpAd+iM3l37Ho2Xf81SEXfBPVC6fT1WIP68SliPfmk7b2UwGXlbQ0zFAXcs492s0nLivYdslNaln1MRnqok5riH6mEsxx9TEnVCRdnaSXQUqzhWpKWnQ0NylZGigk/HuUiZlh1FXrkFbHoeuLJzp8nBmKsLRV0Sgr4zA8HKu9FUReDRTHcl0TTT6ll+wKJ9inRnGbNB9GaSxGRXP++vJrCkk+c4uAi+tmqPgC8mEH48nbUcIh2Pmk7/sO+4s/Y6iZSI//Uh58HxehvhTn55A+/ks+p6V0tvSSU3zGHmlk+y5qmb9BQ0rT2mJP6El5piWaKGjWqLcij6qIe6EmuRTGjblaDh4S8W1sgmaupQoh1tQdd9B23yYqVdpTFdGMvMyAr1QVQSGqkj01S4ZaiKZqygMNVHoX0VhUGzFNHIbs64Fo34Cs8UsNVjend8PJgJE0nY4nVKo3W57xp4XZ4m/ud0FKH8VgUICWF4KgedFEo/m51WLyQr9gYJl3/HHkv+jRIRdiB8vxajALxvpf3yfPkUH9YpRblWq2V2oIuW0cIqAoiPSrbf7R3REHtERcUTr0mEtccc1rDqj4sBNFY/rNbT3vkY5VIeu9ypT8u1M18Shr47GUO0B4gJhECCEaj2KxlgbjbHOLcUGTEO5mCarMM6MYLaYfINkdzrpUY+QI/+DjY+PEHVtM4H5qQRe8pJ4npdCeFY8yT8vZ+eKBZwL/o7bi/6XR0u/41nEIqrT41FkZfC6rob2rjFulU9y8KaaNec0xB0X7nkHyANKbCMkQJ6tC1TUUQ2xx1Wsv6ji5AMNRXUT9A0OoXtdxlRrBtP1q9DXxmN8Ff1OAoZHAkq9UAxGWSymBrda1mHqz8I0VoRxegCzxfh5SFJfzeGgY3KQrFfXSLm/l/DC9R9CcgMLPreC8Ixo0jcFcjziBwqX/C/3lv4fT2IDqN21kfbCPAZb2qnr0HHygZZ1FzQkZmqJEm7xcpH3/lxILkeFH9YQdkhNYqaKrflqckrUKHrVaJTN6DrPMd24FYMsGWNdzDsJIB7JBJwYjAKOPO6dWtIx9R7E9OY2xqkezGYx1Gv3jrYPF3EJSFaHnZbxPg5V5RN/e4fU9AdcSpnrpEupBAg35SQTdCaJpL0R7Evy50Lgd9wQkJJCacw6SGfRI9qb+yiV6dhzTUfSSR2xx+cCehtWcxzkcZKO8MNaPJCijqhIyprk9xsqatq0jI92oe29yUzb7+gb0zE0xEpOmeMWuQDjVmMcpsY4zI3x0tbUkoapazem1wUYtZ2+QXJ1aG00jXWzv+ICUTe3srwgnT+DFJCXQkBuCtHHY9m0YRlHoudxOeh7SlOjabl0jq7KaurlQ9yq1LI1XyeF2Nvc43aSL5DCDmkIzVATlqEi4tAkP19S8USuZeh1P6qBEma6T6NXbMAgj8Po1lvHuMEIOBKgpnjMTfGYmuIwtaRi6tyBcSgXg7bdR0hOJ0abhYbRTva+OEvE9c1SfRSQ/zEnpSBeF6BCshOJ2xvOlrVLORv+E8XpCbTdvkqHTEF5/Qh5zzRszNFIrZd3aH2YgzzOEe55Jw8kD6gtuWru1YgEPsj4UCUzfXno27ZgaIrH6HHJn8ARgFyQ4jEpUjB2bMM4eBGDps03SHanA4PNTMNoO3uenyH82iaCL6+WYMxJ3FK4uSEJgBdWsDwzjpRdoRxOWMDdTcm0PLxDR1MnT+tGOV+iYd1FjdS8fwkkAWeOJDep2XRRzY1KDY1dw4wO1TIzUIi+fRvGZuEQt3yF1L4F48B5DJrWvwIp2wuSV8vm3cq5YQXmJhN4fgWxh2LYvmYZub+kIS++R0dzF0/rlJwr1rL+wtwm3wPr/UTtcdAc93jBCs/QsOmihusVWuRdrxkdkjEzeA19+3YXpGaXUzyO+dRWOMn0pZBEz98oOamDvc/PECE5Kd2VpN+D43GWFHIi7PJTCD+VQOovoRzNWMfL0ju0NrbzvH6UnCdaNlz0HZI3IBFiUpgJUBkawjPUbM7RcKtKi6JH1Eu1zPQXYGjbhlG4SEDyFZSA1LEV4+AFjL46SRSSZpuVptEu9pWdI/L6FpZfEZBSpOQtEvinFHR+BRHHYthxdhNFxddorGvgZeNrrpZr2JwnuhzaD5p+bycJF30MkAeUBOugiq25ah7VaekZHGJisIKZnhwMLZtdLZY73D7lINffROJOwdi5DePQRYxaH3OSmDWw2my0KHs4WJFD7M3thFxZ4zOkwNyVBJ5LZHX+Fi4/zqWipoLa1kEe1GnYWaghLlOAer8EmNvcfwpSxGE1scdU7C5QUdasZWSkD3X/Y2a6sjAq1v8FSKkYu3ZiGM7H6Gvr5ikm2ycGOFZ9haQ7uwgrXPtJ98xxVn4yAlRSwWYOPsjidtUjGnt7qWzVknFHQ3K2qLZFt2Pqvcr6XasmIH0MVEiGAKQm/ZyKrD9UNHSqUSnb0fUVMNO+B2PzakyNn89HbxO7KAFaV2Ps2Ytx5BoGXZdviVv03US3pFv1mjP1t0l/8DvhVzf4DskdjpEF69lwex/ZZYXU9bfS0Ksi56maHQUakk+5K+73ikfvhP0+JFFtCxelZqvZf0PNrcpJugZGmVLWMd1zGn3LJozNyVLL9rkwmwOpbS2m/qMYlfcxTvX51i0Rk3UO5ywDWiUFihJ+Lj1J9PUtLMtP/iwocYxHyy+nEV24iV9LsnjWVUvT4ChPmlRcLNGwKVf0wzREig6sVy30p5AOiWNFh1jN9stqrldokHUoGRnpZvp1CfrOAxgVqzA1J0n1z+cgSUndk9zbN2IeOodp4hmmmSEsFpM0KuvdL/nIKIAL0siUikfd1RyszCPh5s9fDEmEYNDlVaTf30N+wx+86FZQ2z1CSYOaE/fVbMpVk3xaQ+wxDVFHNB8UjlLIZaiJFDnouHCQhm2X1WQ/VlGumKRvqI/x4Qqm+vIxtG13AWpO8K1V8wAS285tmN8UYtbWYzYopSFcMXTt/fgoJDGrOaHXUT3cwrn626Tc/dXnxP1+foq+vpntxSe4UHefmr52mvsnKJWryH2i5pcCtTRkIgbYBJTwOVITfkhF3HEV6efU7L2hobBcy4vmSZp7X9M/UIeyMw9N62/oFasxNyX45iJRbbshmZoTMHXtwjLxCKu+G7NJjdVq+fzqWxFuAtKUyUDn5BB32p6y/sEByRUCgCecfNkuzVvJ8surib2xnV9KT3Kn5Qk1fW3U9rzmadMEeU9VZNxWs+Oyho0XNaw/r2HtOSFReGrYnKPm1ysqyXmF5SpeKMaQdfch66yjtfUWr5v3o2lKx9C0wndAbkim5kSMLSnSCIBV8xKbWYnFPO0bJGEzkbxFrTRp0FEx0MCO0hOEFK6VRgHEjfuuFQTkJUugRMjuLM3ifN09nnc10TgwQkOPiqpWHY9qtVwv15L3RMuFYiEd+U91Uqe4RKbhVbsWWfc41Z09PG+u4NHLHMoq9zAgW8dU0wqMX+Iiqd+WgEmRjLF9I6bBM9hnWrBbp7FYjFil9QE+LFF2jU46MNssKMZ6OFKVT+KdnYQUpH8BoJUszV3h1kqp/xdzYxtbi46TW3+P0s4aavpbkfX3Ud01TFnrG0qblBTJxylqGKe0UUl562uqOweo7emivL2BO7UlXC3L4XbpL5Q/T2O4Lgm9z4Wjd2mQgKk1HWPPPsyjN3AYB3DYLVjFunNfIXncZHc46Ne8oVBRzI7SLER+kVz09uY9ED6/FY4Kvpwmzd2l3f2NncWZHKssIK/+MfcUVZR0NFHW3UFlTw+V3T286GjjsaKe63XPyH5xk30PzrD56m/sv7aBopJUOquSUMniMYpax92r/2yr5jlO5KT2zZiGL2JRV+KwTkgDbSIffREkD6gJvZbKwUaya2+Sene3FHLLRMj9BVCu/1kp9QPDCzeQencPO0qyOFp5iYv1tylsfCRNp99sKuZK/R9kV15lX9EZ0q/uI+nCRlacSWTfpWgqn8QyVhfHtBhhbIr7snzUlIhZkYy5ew+WsYfY9N047TPSkK0A9MWQBCiD1cSQVklx90u2Fx8ntGCdNJT7JZCW5CTxTsJ1K6VzhF5ZQ9TVjSTe2EbK7Z2k3f2V1Xd3s/rOblJu7CTh8hYiz68lMCuZqJPx/JwTw+U7MbRXCECucSOf3SNcJEYkm1diat2Auf8UVk09DquaWadYp+SUAP0lSHannRmLQerwnqy5Stq9vYQVrP0iJ70D5A3LvZ/r9VpuEotzklh8MZGFZ+Pxz4ph/tEI/DJCScgK4/T1aCqexPLmlRh6/YIm3x1mUqXdsgZT90HMb25jN/TjdJiZnXV91eIvO0ksnBBT3sPSbG41R1/mk3Tz57e5aUlu0meBeSCJm/fWkpxEhBa/lQvQovMJLMiOZf7xSPyPhLHsSCibzkfwuCiWgVfxaBuEK7wT8ef2XXnLKJr9jh2YRq5h1TZgt0zidNqkaf2vcpJo6cQJdCY97ZMD3Gt/zs/Fx4i8ukEKGQFpyZz8JKB5ucMr1LwBif0PISWy6EICC8/G4X8ymnlHw1l6NIyVp8M5cTUKuZipbUzAIAB9KSTFSgztGzH2Z2FRvcRmeoPDLhaYiubedY9/2UmeBG5x2NCaZmhSdnFBdodNjw9LU00iPFygPGDc7nC7xgNirmO83eO1fzGRRefjWZAdg19mJD8dDiMyM4yMgmjJRf018V/Y5LtCUgz+G1vXYew/gXnsEXZDH067nlmnTQIk7vGrnCRBEidxz+wqZ9S8GGggu/YGa+/vJ+zKWgLzU1ygvMPHE1ru1z4L6WICiy7Eu1x0Khr/ExEsOhpK2tlwrv8Ri6IyngmZa+z6S5K1SSRqkYd6fsesvId1ugWnTSPlIeEgz+OrIXmDMljNjExN8HKgkcyqQheogrXv3CSF33uueptzvFzj9doiD6BzcZKL5p+IZPGJcKJOhbH3SgQvn8UxJktgWsyCeGodsfXuqHrvexK1OF4CdAjz6C1sMy3u1swsPva3LhL3900gSaDcbrLYbAxrxyjpriGrulDq20Vd3UDQpdR3sLxd5QXkXZJ2AZMAXUxg4fk4FpyJwf9kFPOPRbA8K5wtuRFcuhdFZ1Uc+qYE1/i1D5CkjqvodrSux9RzUAJk1TXgsE4yOytCbC6gbwrJA0pQ11tNvJ4ap3qoiQv1t9ledIzoqxullk4KrYsJLBYO8UELRZidi8U/Owq/rAjmHw0jMTuC83eiqXkRy2idqKzfc5E3LI9zxDHNCRgVie4knYlZ+Qe2mVacVhWzzg8dJO5JPL6Zk9znc51UlAYOG8oZFVVDTVyS/8GukkxW3NxB2JU1LMtLlmqez0ISgNwu8jsVycKscIIzw9mWG0lJSSyDtfHo5J8G5BppTMDYvBJj61oMYkZ24CTm8cfYpgUgkYPE/P67HOR9L38bJM+KOJPNIi1hbh3v41HHS7KqCllzf79UmQtQAtLii/GSqxbnJEg10VtwHkCSi6KZnxlB4MkI0i9GkX0rhsaKOLTyeGlW9oP843aWGNM2NsZJwyWGlvUYug9iGrmBRV2N3diP06Zl1mn5aIh5g/pbnCTeQHwunq9VTJuN9Kje8KxXRvarm+wsyWT13d+IvbaZ0Cvp0jId0ZUR9ZEEyRvQmWiEi/xOhBOTHcGhazEUFcdJLpJmZL2TspihlZQojWkbFekYWzdj7NiDsfektCDLomuUxoecDuPbOuhTLvrbnOT9KQhQNoedKbOBkalJWsf6edFbz2X5Q34vu8Dq+/uIuLqJwLxUF6T3AM0/FYl/VjgLT4SQfiGc2w9jaa9KkHr5UmvmhiQtcBBz/c0JGBQpGNo2Yeg6gHEwD/NoEVZNAzb9AHaLCoddAPp0iHnfw9/mJO83cY1BiS6MHaPVgnJag/xNFw87KzlTe4s9z86w+WEGabd/JenGdmIKNxJ2aQ3BOaksO7uC4DPxxJ2NYf/VeKpfrGSiIZXpplRMijRMYg1R6zpMbZswiqnsrl0YezMwDpyV1hWZVTVYZ/pwWLQ4HaKzape+ei9Sgq+PfwskcTFSF8ZdJoiRTVGhj0xP0jk5SN3rVp50VXGjqYjsmusceH6ebY+OkX57H4lXfmb1lY3sv7mOG0Xr6Xi1EZ1iM9Nt29F37JLcYug9gXHgAqaR65jHi7BoqrBNt2A3DuKwqNwVtFUKL3EdXwJIXPu/DdL7n5r4HB3uRWFiTfibqQnax/p5OdDEw45KChqLOFdzi+MvLnPmxUXuV5+jXn4WZedZDP0XMAzmYhy+gnHkFiblY8yTlVh0TdiM/ditEzhF38vdQfXdM+9fpev5fwySeHvxiYqFYSJniTCcMukRA3miau/XjNI9OUy7so8uZQ/DE91MqrswTHVLg2E2fY/UzxJusZtGsFvGcVg1bteIIQ47uDuoH79131/9j0LygJICQPotgXf9QLE4QwwRC4A28fsC0reFbDic4tchxC/biGEMIfG9fvGVdSFPtfy13pkLUED6t/ygy9y3/fNn4vakvOH+WR/ReRbjVgKAt1wu8YYi/eefn/gr/iLl03/nTwN9xbX+V/7rBzO4/5VX+R++qH8g+fAB/APJB0j/DyR7ljLYlsaAAAAAAElFTkSuQmCC;" vertex="1" parent="03ISFg3FK-GgMzTYB2Pi-1">
          <mxGeometry x="90" y="290" width="28.82" height="30" as="geometry" />
        </mxCell>
        <mxCell id="gbgX2ZyU5q0YuarfaIco-3" value="" style="shape=image;verticalLabelPosition=bottom;labelBackgroundColor=#ffffff;verticalAlign=top;aspect=fixed;imageAspect=0;image=data:image/png,iVBORw0KGgoAAAANSUhEUgAAAEwAAABGCAYAAABmDHJNAAATaklEQVR4Ae2b93dU17mG8+/cOPFKnJtcx3Ec35V7k2BcwNjENtVgbGPTJFFMMQaMDbgDxoRuikASEiDTEVUVJKGGeht1aTQqo9HMnLP3Ke9d7z46llCQpZEE1z/orLXX0czs057zlff7NvwCE1tEBH4R0eyJyZgAFqERTACbABYhgQinT1jYBLAICUQ4fcLCJoBFSCDC6T9LC7NtgOPnuD1yYARhWoAmbXQHbbR22aj1WihvtnCv3kJBnYV8T/8oqrdQ0mihqtVCQ4cNX4+NoG5DmoD1/wD1kQNzYbX5CcXEhTwDB65LbE2WWBMnEH1YYOkhgSWHBJZ9L7AyVmBjksDOSxJxmQZSy0x42i30aA60R22FjwQYrUoYQFfQRl27hbu1Dqh9KRIbTgq8s1fHtK80/M9mDU+v1/DHdRqeXKvhqXUant2o4fltGmZ/qyHmiI4vz0okZhlILzeVVbb5bYSFraztURjcQwdGWJYFdARs3PWYiM+UWJ8gMG+Xjmmfa/j7xxr+sl7Dk6tD+N2qEH6zIoTHlzvjN8tDeGJlCL9fHcLT68L46wYNL27R8MY3OqK/F9h1WSLlnoHGDgvCcKA9bIt7qMAIK6QDjR02MitMHLwmseKojslbNTzxQQi/ig7hP5aG8MtlITwW5XwmrN+ucAaB/TrG+Y1z3Hn87tmPNMz7TsfWZKHcurzJUjHRsB5uwnhowNzg3uCzcSbbwOYkgdk7dPx1o4bf98EiABcYIfx2ZQh/WBPGnz/S8MxHdMkw/nO1Y20EOhDaEytC+PM6DVM/07DkoI49KRLF9ZZKCIT2sLaHBiwkHMu6es9UcerVLx23cx+alvRfq0PKzaZu0zBju44Fu3UsOqAj5ojA8qMM/joW7tUxZ6cOHv/cJxqe+VBTbuoCpMv+9wYN7+7VcSLdUJmW2ZcZ9GHEtIcCjNbV3GXjXJ6Bj5OEeljGqMdj+qwkKoQn14Txylcalh/VseeKxNkcA6mlJnJrHElBeZFXayGrwkRKoYnYNInNpwTe2q0rQL9e3u/GhPa/HzvQeC6658OKaeMOjPrIH7KRXWOq+PLaNxqeWhP+Mf7QHf++2Yk/n5wWiM+SKmu2dDnuRNmhrIPJwgZ06WTXihYLl4sM7L4sseyQjqmfa/jTOk0lCFoboT27QcPiAzrO5xlo6LAQEuNvY+MOrCdsK6F5PM3A/F06/rQ2DAZvPhTdcPIWDR/GC8RlGMipMdWDUW5owoYbsN3H5J4ZlpIkoNmghChttHC1yMSOCxKvbdfxhzUONCYQQpvymYbNpwUuFhpo7XbPNH4RbVyB0RWbOm2cvWtgfbxQkuGXfcGalvXcpxqiDutIumMoDRUIR/5AtDiv30ZauYlPz0i8vl3H0+s0PBYdAq/19FoNs3bq+OaCVC+OsMezIhg3YIRlmEBxg6VUO+MT45YK8lEh/G2ThtXHBRIyDZQ1WSAszo90o8URWnOnrcTrzosS077Q8PiKkIJGSfLMeg1LD+q4WWIqsUxo47WNGzA3dt0qMfH+foGn1jquQrlA4Tlrh46jtwwFtCcUuWUNfmBCa++xcaPYxMpjAi9u01Tgp2yZ9Imm4tyVQgOMjXT38drGDVhQs1HTZuFkhqGUuBu3lCtu0bA2TiCz0gRhEe5YN9fSWJSfSHcy6IpjOqKO6Fgdp2PXZaHqzgafhZD+MwTG0ud2lYmdFwVe2hbGY9FBPBYVxF/Wh/H2Xh37rknVlRgrqMHHU3PlsYgvMHAiU+JImkTcbYmLRQby60w0dbHWHD9NNi4WZts2mjotnMkVWJcQxqQtQTy+ohe/Wh7A81tD2HJGx9V7hgrWgx94rJ/dor6py0K110Jpi4XiFgtlXgsN3RY6Qza0vsA/HnY2KmC8sLBs+KWJFk2iJqjhVmMQOzL9eP9kJybv8uGpbT78cUsHXt3bhS9u9OBSVQiV3QLd0lTHjvXmKUF6pY32kA2P30ZJh4W8Vgu3m0yk1pu4WWcird7E7SYLBW0Wyjss1PU480OGDXOUlUDEwPigpm2jUxoo7AnhYls3Dnq8+LS4CVGZ9Xjzai2mn6vB1NM1mHKqFjMu1CE6sxFfl7QhubkbBT0hdEhDnWO00HgcYVV3W7jZYOJQsYFttyU+vCmxMkUg+pJA1EWBmMsCq65KrL8l8eUdiWMlhprfELAQ7oMWqYWPGBhv0rBt9EgTnpCOrM4AEhp8+KqiGSsKPHg7uxJzMsoxM61UjRmppZhxqwyz0soxP6sSMfm1+KK8GXENPmR2BtQ5aKHSGllbhtenngoZQHOvjfw2Cz8wZuZKRF8VmJksMDVBx+TjOiYd0/GPo87++RM6Xj6pY26yjpXXhJp/ocbEvXYLbUEbYYMGMHJsIwZGWL2GhbJAGPENPmwra8QH+TVYlF2Jt7LKMSejDDPTSzEjraR/pDrwZqeXYX5WuZq7Kr8WW8saFbiSnpBya0Ib7p4JS1pAQ8DGuRoTX2cbWH5F4s1kgVdP6njxhI7nYh1QhPX3I/3Q+P1LJ3RMP6ljfrJA9BWBHTkSqQ0mGgMOtJEiGxaY+2YZe0p6wkhu7sTG4nq8nV2BORkEVKwAzUovxZzMMryZRYtyBv/md/zNBcljeOyG4jqcavIhvzuIVk0ibFrKTQffOK9PC+gRNmq6bVzxmNiaJbHgnMDUeAeKC2dyrI4XTujq+5cTdEyJ7wPZZ3GcR+t7IU7Hu+cEvss1VKxr7HESw0gsbVhgqgC2bFT2ajhW14719+rxnnK/UsxMd6yJ+7lZZXgnpxKL82oQU+BRY0leDd7NqcTczH7r41xCW5hdgdWFtdhT3YqMjgCa+6ANBsaH0EwbFV0WYksNfHhLYh7dL07Hc8f6LYmu+PJJgRnJAm9fEFh4SeCt846rEtykAdZHaC/H61jwg8BnGRLpDaZyT2bT4bZhgfHNN2oC17x+bCqux/zbFZid4cCaRWu5XY6Yu9XYcK8OX1Q0YVdNK/Z5vNjv8eK7mlZ8WdGEDUV1ag7nqmPTSpT70vpW5NfiUK0Xab4A6kMCQdNSsdK1rG7dRhklS5WJNTclXj8t8MLxflBTTuiYc1pg8QWBdTelCv7f5knszpfYcVcqa1xzXeL9CwJvnBLKdd0YR1d956zAwQID2S0WOsP2sMt7wwLz6hLX23uwq7oFUXer74M173a5spKjnjbcbO9GoT+Iqt6wkhmUGvy7sDuIm95ucM6aQg/eIvA+F2XMY/yLuVuD7eXN6qXUhnQFjZbF9F/aYeHQPQMrr0vM7IM16ajjirQqWttnmRKJ5SaymiyUdViooibrdvbF7Zb6PqHMxLpUidnJDjTXjRn/oq4IHCg0UN1lqyVA1sVDbUMC4zEM9NW9Gr73ePFBoQcLbperWES3eudOBdYVeXCgtg13ugJo1QQ00wJFrLvxb37H37I7e3HY41VWujinEm/2xTZCm51RhtUFtTjd1ImSgIYuYaJLc7RVUoWJFdckXk0SKgO62W9aghOHtmZInK8xUd5pqTg34PLqNqjXAsKx0rhyAxvSJeYkCzzPbMr1heO6OvdHt6TSbD1c8/yJFveQwAiL7pHfFcTnpY14+44T5AmLbsUMmdjQjgJ/EG26VGCozwZv/I7QfLpERSCMy61dKsMuyq1W0AiMrvlhkQcXW7tQ1avDq5ko8VnqrS+/KjHj1P2wGLTfOy9wIN9ARoOJOr+toDzoQXlLhObXbdT6bVyoNbH6hsT0JAcaXwChLb0o8EOlidpuC0H578/hPteQwHTLAt3xlteP9YUelelmppVgbl/A/qKsETmdAfilobSUe8Kh9pZtg+ekyyW3dOJL6rf8GizNrVJuvbuqBRm+AMr9Ene9pnIxwnolUYDZz7UsutCiiwI7smkRplL6+giKeVeWVHTa2FNgYPElAVopXZPjrWSB/fkG7rSY6NRGASxgmKjoDeNMUwdW5VWDsCgNGLjpisfq25W7RiY8qeVMNIaFEq/7PG34troFp5s7kNkRQFVAILfNxJ58AzEpUgXpgbBejNfVgx67Z+BuiyM8CYswhts4hfMoVq/VmfjmjsTc00LB+tthHTOTBD7NkErjtfQOfcIhLaxLGMjt6sVRjxfRuVWYkeroLQpVZj6WRNRPkW7OjdvKetM6A0hp96PQH0ZZt0ROq4n4MhPRKVJJBBcWs9k/E3UsuSSwK9dQNWP3KP+pgIpnHRbiSwwsPNsPjKJ21TWB2BID9T2jAMaYk+brwd7qFizLqXSApRZjWU4V9tc42sk3ylYmb0ezLLQLA41hiYZeA7ebTXyXJ1XGep0Bvs8NCWtKgo6llwViix1YLLjZUxuJZQ1+odRatKBLNSaWnHeA0SVf6bvG/kIDtT+xFjCkhbXrEjfb/fiuqhlLs/uB0dqOeLzI6QqCVjjajQ8rTMDLflarpWAQCutBQmLM4v61JIFlVwR25xmqfmTwflBwH+l98JodYRs36kwsuyjUdQiM8ez9SwJ78iVquodOkz8JLNXXg38NsjACO+xpQ3ZXLzrHAIw3TunAWEQ3o7vR7QbCmpogEHVFIq7URIHXgo+W1bcMN1JAg+cx5vnCNq55TCy7cD+wRZcE9haMEliHMFRH4mBtK6Jy+mJYajGW5lSCGe1me4+KQ4NvaLjPAy2LsI4WGVjMLm28U+qoNB+rg27JWLY330Ch19FYY7Es976CEqp/Rgmx6Fy/SzL7xqQIfH/PUL+78wfvh7Qwtl7Y74qvb8fy3GrMSHWy5MI7Ffi4pAGJTZ1oCOn3CdXBJ3/QZ9clcppN7MyRSiLwZt1yhbFrWqJA9FWJk2VOG4YuNFbLcu+FkuFOi6UkBKUE3ZFZ8vVEAYrXxAqng+HOH7wfEhhFK/teF1u6sCa/9sfWDTsR0Xm12F3diiJ/CEHDVBXB4BMP/kzLoju09trIbjZxuNBQ9R1FKK3qH0d0FehZ78VcldhXaKDY54hICs+xbrw+obM7m1RhYGOqxIykfgujxPgm28D1OhPen1jVGhIY9RVbOlkdAXxcXK/UuCpj+uq/TffqcaWtW0El3OE2wuKNZDWZ2J7tFMPMTITFt8zYRZFKscq6kLBoDYT1gAJiuMv92++ExRZRTouFbVkSc5OF6pHx2hzvnhU4UWKoCoPl0VDbkMBUrLFslPaEsKuqGUtyq1QpQ/FKERuVW4U91S246u1GZW9YJQB2NlhSDXxA1Z5hlzRgI7PRxIECQ5U17FsNtCyWP6wZDxQZqj/P8mQsluXoPceqCYqNwrutFo4XOzGTls0wwBbRlDgdq1KkSgQUtj/V5hkSmHvBxrCO5OYObC1twHt3Kn4UsPMzy1T3YltZA5KafCprUsEHDQsGO6h91JTuCdpIazDx1W2JheecksS1rOdjdVXXrboucarSVLCYPcdqWU4IsFVGLO20cLHWxFd3pMrGFKluzCSseWeF6vkzuQzXsh4SmGuSXdLAXX8QJ+rbVSybp7oMjpWxH/Z+TiW2lDbgiKcNKa3dyOkIoKg7iFJ/CKX+MO6260jxSOzJk3jnXH/By0BLV2DX4LVTAgRGV2Rfiqs8bMuMZtzzWuAobLOQ22IpvRVfauDzvi7twGzMMDD7jMCmdL4sQ1nhQO9wGQzcDwuMy2nUW2zP7KhoxtLcahCa65pzM8qU5VGfrc2vxaaiOnxaXI8txY3YUtSCjbk+LL8exIIfnC6na1lu7KBL8CFmnhFKza+5IVUjkCtAoxnrePwNCTYNP7gqEX1ZKKuefbq/S8t7ICyK5OUpAsmVpuqh9Y7gnxQMC8xxTRtNYYHzLV34ml2GvBosUAsffb161pmpxSq2sX8/O70cs29V441r9Zh+3osXTwYwKVb7MYW7sLh3b56rOyyux2MwPvF8bNu4Qti9Jl8QF0xmnRZKd+3LdwJ9SDrNw4HW9KC/hwXGgwgtZFpoCOuqvvxXTatqybBzoboYfcDUggiX125U4J9X6jD1TDteSOjBpNjQj9nQvfGBe0JjTBnvwfNyuNfi3y/F6arryrWBUxWmcnvGTCb64dyRLEYEzIXGDNiiCdzw+fG9pw1bS+pV64fq/93b5ZifWY45qZWYca0O08+34qWTfkw+HsbkWE1pLIrSRzKOO7GRlsSgTvlCzUWhysXdLZkS8eWG6tJGmo1HDMyFRunAxmJ5IIR0nx+nGn34tqoZG4rrEZPnwbuZjZh7xYfXf+jB9FMhvJKoYdpJfWQjkSp/9OOVRGo5tpyZSHS1uDv/nMCSKwIb0pwy61yVidxWS7Vw2OqJNBtHBIzQuLm9enY0SgMhXGv3I6GxA/ur27G9uBPbsoPYnK5jU5pQinrDLYkRjVSJDWMYVO8b0yQ2pUl8kiGVQN2eY4AtG0oWtpA8fkv9MwPKDoaaSLdRAeNF2Ktny7nHMJXFsa6s6dVQ4ddR2mGo2MDleKb4oiGGKwHc39VnHjMOg2sCXEGq7LRVf6spYKtlNNcFRwOLzz1qYA96M7Q8Dr69gYNqn0H1vjFgjvp9wOeBx47lb0IZLZgHPd+4A3Mv4t7offu+/wPJTKRG38PcN2ecv3PvZzz342ph43ljP9dzTQCL8M1MAJsAFiGBCKdPWNgEsAgJRDh9wsImgEVIIMLpExY2ASxCAhFOn7CwCWAREohw+v8BgwvqqtzbftEAAAAASUVORK5CYII=;" vertex="1" parent="03ISFg3FK-GgMzTYB2Pi-1">
          <mxGeometry x="89.41" y="370" width="30" height="27.63" as="geometry" />
        </mxCell>
        <mxCell id="gbgX2ZyU5q0YuarfaIco-4" value="" style="endArrow=none;html=1;dashed=1;strokeWidth=1;dashPattern=1 1;strokeColor=#757575;" edge="1" parent="03ISFg3FK-GgMzTYB2Pi-1">
          <mxGeometry width="50" height="50" relative="1" as="geometry">
            <mxPoint x="120" y="419.9999999999998" as="sourcePoint" />
            <mxPoint x="120" y="280" as="targetPoint" />
          </mxGeometry>
        </mxCell>
        <mxCell id="gbgX2ZyU5q0YuarfaIco-5" value="" style="endArrow=none;html=1;dashed=1;strokeWidth=1;dashPattern=1 1;strokeColor=#757575;" edge="1" parent="03ISFg3FK-GgMzTYB2Pi-1">
          <mxGeometry width="50" height="50" relative="1" as="geometry">
            <mxPoint x="599.9999999999998" y="419.9999999999998" as="sourcePoint" />
            <mxPoint x="599.9999999999998" y="280" as="targetPoint" />
          </mxGeometry>
        </mxCell>
        <mxCell id="gbgX2ZyU5q0YuarfaIco-6" value="" style="endArrow=none;html=1;dashed=1;strokeWidth=1;dashPattern=1 1;strokeColor=#757575;" edge="1" parent="03ISFg3FK-GgMzTYB2Pi-1">
          <mxGeometry width="50" height="50" relative="1" as="geometry">
            <mxPoint x="280" y="419.9999999999998" as="sourcePoint" />
            <mxPoint x="280" y="280" as="targetPoint" />
          </mxGeometry>
        </mxCell>
        <mxCell id="gbgX2ZyU5q0YuarfaIco-7" value="" style="endArrow=none;html=1;dashed=1;strokeWidth=1;dashPattern=1 1;strokeColor=#757575;" edge="1" parent="03ISFg3FK-GgMzTYB2Pi-1">
          <mxGeometry width="50" height="50" relative="1" as="geometry">
            <mxPoint x="439.9999999999998" y="419.9999999999998" as="sourcePoint" />
            <mxPoint x="439.9999999999998" y="280" as="targetPoint" />
          </mxGeometry>
        </mxCell>
        <mxCell id="gbgX2ZyU5q0YuarfaIco-8" value="" style="endArrow=classic;startArrow=classic;html=1;dashed=1;dashPattern=1 1;strokeColor=#757575;strokeWidth=1;" edge="1" parent="03ISFg3FK-GgMzTYB2Pi-1">
          <mxGeometry width="50" height="50" relative="1" as="geometry">
            <mxPoint x="120" y="300" as="sourcePoint" />
            <mxPoint x="280" y="300" as="targetPoint" />
          </mxGeometry>
        </mxCell>
        <mxCell id="gbgX2ZyU5q0YuarfaIco-9" value="RTT" style="text;html=1;strokeColor=none;fillColor=none;align=center;verticalAlign=middle;whiteSpace=wrap;rounded=0;" vertex="1" parent="03ISFg3FK-GgMzTYB2Pi-1">
          <mxGeometry x="180" y="290" width="40" height="20" as="geometry" />
        </mxCell>
        <mxCell id="gbgX2ZyU5q0YuarfaIco-10" value="" style="endArrow=classic;html=1;strokeColor=#757575;strokeWidth=1;" edge="1" parent="03ISFg3FK-GgMzTYB2Pi-1">
          <mxGeometry relative="1" as="geometry">
            <mxPoint x="120" y="320" as="sourcePoint" />
            <mxPoint x="200" y="399.9999999999998" as="targetPoint" />
          </mxGeometry>
        </mxCell>
        <mxCell id="gbgX2ZyU5q0YuarfaIco-11" value="HTML" style="edgeLabel;resizable=0;html=1;align=center;verticalAlign=middle;" connectable="0" vertex="1" parent="gbgX2ZyU5q0YuarfaIco-10">
          <mxGeometry relative="1" as="geometry" />
        </mxCell>
        <mxCell id="gbgX2ZyU5q0YuarfaIco-12" value="" style="endArrow=classic;html=1;strokeColor=#757575;strokeWidth=1;" edge="1" parent="03ISFg3FK-GgMzTYB2Pi-1">
          <mxGeometry relative="1" as="geometry">
            <mxPoint x="210" y="400" as="sourcePoint" />
            <mxPoint x="290" y="320" as="targetPoint" />
          </mxGeometry>
        </mxCell>
        <mxCell id="gbgX2ZyU5q0YuarfaIco-13" value="&amp;nbsp; &amp;nbsp;" style="edgeLabel;resizable=0;html=1;align=center;verticalAlign=middle;" connectable="0" vertex="1" parent="gbgX2ZyU5q0YuarfaIco-12">
          <mxGeometry relative="1" as="geometry" />
        </mxCell>
        <mxCell id="gbgX2ZyU5q0YuarfaIco-14" value="" style="endArrow=classic;html=1;strokeColor=#757575;strokeWidth=1;" edge="1" parent="03ISFg3FK-GgMzTYB2Pi-1">
          <mxGeometry relative="1" as="geometry">
            <mxPoint x="200" y="400" as="sourcePoint" />
            <mxPoint x="280" y="320" as="targetPoint" />
          </mxGeometry>
        </mxCell>
        <mxCell id="gbgX2ZyU5q0YuarfaIco-15" value="JS,CSS,HTML" style="edgeLabel;resizable=0;html=1;align=center;verticalAlign=middle;" connectable="0" vertex="1" parent="gbgX2ZyU5q0YuarfaIco-14">
          <mxGeometry relative="1" as="geometry" />
        </mxCell>
        <mxCell id="gbgX2ZyU5q0YuarfaIco-16" value="" style="endArrow=none;html=1;strokeWidth=2;strokeColor=#FF0000;" edge="1" parent="03ISFg3FK-GgMzTYB2Pi-1">
          <mxGeometry width="50" height="50" relative="1" as="geometry">
            <mxPoint x="359.9999999999998" y="419.9999999999998" as="sourcePoint" />
            <mxPoint x="359.9999999999998" y="310" as="targetPoint" />
          </mxGeometry>
        </mxCell>
        <mxCell id="gbgX2ZyU5q0YuarfaIco-17" value="" style="shape=curlyBracket;whiteSpace=wrap;html=1;rounded=1;flipH=1;shadow=0;glass=0;sketch=0;rotation=-90;size=0.5;" vertex="1" parent="03ISFg3FK-GgMzTYB2Pi-1">
          <mxGeometry x="295" y="294" width="10" height="40" as="geometry" />
        </mxCell>
        <mxCell id="gbgX2ZyU5q0YuarfaIco-18" value="" style="shape=curlyBracket;whiteSpace=wrap;html=1;rounded=1;flipH=1;shadow=0;glass=0;sketch=0;rotation=-90;size=0.5;" vertex="1" parent="03ISFg3FK-GgMzTYB2Pi-1">
          <mxGeometry x="335" y="294" width="10" height="40" as="geometry" />
        </mxCell>
        <mxCell id="gbgX2ZyU5q0YuarfaIco-19" value="&lt;font style=&quot;line-height: 80% ; font-size: 11px&quot;&gt;recv JS,CSS&lt;/font&gt;" style="text;html=1;strokeColor=none;fillColor=none;align=center;verticalAlign=middle;whiteSpace=wrap;rounded=0;shadow=0;glass=0;sketch=0;" vertex="1" parent="03ISFg3FK-GgMzTYB2Pi-1">
          <mxGeometry x="262.18" y="260" width="75.63" height="20" as="geometry" />
        </mxCell>
        <mxCell id="gbgX2ZyU5q0YuarfaIco-20" value="" style="endArrow=classic;html=1;strokeWidth=1;exitX=0.1;exitY=0.5;exitDx=0;exitDy=0;exitPerimeter=0;" edge="1" parent="03ISFg3FK-GgMzTYB2Pi-1" source="gbgX2ZyU5q0YuarfaIco-17">
          <mxGeometry width="50" height="50" relative="1" as="geometry">
            <mxPoint x="360" y="280" as="sourcePoint" />
            <mxPoint x="300" y="280" as="targetPoint" />
          </mxGeometry>
        </mxCell>
        <mxCell id="gbgX2ZyU5q0YuarfaIco-21" value="recv HTML" style="text;html=1;strokeColor=none;fillColor=none;align=center;verticalAlign=middle;whiteSpace=wrap;rounded=0;shadow=0;glass=0;sketch=0;" vertex="1" parent="03ISFg3FK-GgMzTYB2Pi-1">
          <mxGeometry x="305" y="290" width="70" height="20" as="geometry" />
        </mxCell>
      </root>
    </mxGraphModel>
  </diagram>
  <diagram id="XJ6DwTtnYnPatISiAC9T" name="Page-3">
    <mxGraphModel dx="1550" dy="780" grid="1" gridSize="10" guides="1" tooltips="1" connect="1" arrows="1" fold="1" page="1" pageScale="1" pageWidth="827" pageHeight="1169" math="0" shadow="0">
      <root>
        <mxCell id="R3b1SJ7JTnmB82uJPPgd-0" />
        <mxCell id="R3b1SJ7JTnmB82uJPPgd-1" parent="R3b1SJ7JTnmB82uJPPgd-0" />
        <mxCell id="DQR_X5v0vNWuRj7i9vAl-0" value="" style="endArrow=classic;html=1;" edge="1" parent="R3b1SJ7JTnmB82uJPPgd-1">
          <mxGeometry width="50" height="50" relative="1" as="geometry">
            <mxPoint x="120" y="120" as="sourcePoint" />
            <mxPoint x="639.9999999999998" y="120" as="targetPoint" />
          </mxGeometry>
        </mxCell>
        <mxCell id="DQR_X5v0vNWuRj7i9vAl-1" value="" style="endArrow=classic;html=1;" edge="1" parent="R3b1SJ7JTnmB82uJPPgd-1">
          <mxGeometry width="50" height="50" relative="1" as="geometry">
            <mxPoint x="120" y="200" as="sourcePoint" />
            <mxPoint x="639.9999999999998" y="200" as="targetPoint" />
          </mxGeometry>
        </mxCell>
        <mxCell id="DQR_X5v0vNWuRj7i9vAl-2" value="" style="shape=image;verticalLabelPosition=bottom;labelBackgroundColor=#ffffff;verticalAlign=top;aspect=fixed;imageAspect=0;image=data:image/png,iVBORw0KGgoAAAANSUhEUgAAAEkAAABMCAYAAAAhvppvAAAeWklEQVR4Ae2c91dT6dqGv3/sW9/MmRkFO0V6BwVE7HV0HMc2YgcVK0UFexsLxUYREAgBQu9FJJQ0IL1xfevdSTSoo3F0zjk/TNa6194Jm529r9zP8z5vSf6Hfx6fJfA/nz3inwP4B5IPJvgH0j+QfCDgwyH/OOkfSD4Q8OGQf5z03wJpdnaWWacTp8OBw2bFbjZh089gndJiUaswT45jHldiHhvFrHyDeUxo1PXa5DgWjQrrlA6bwYDDYsZptzHrdCCdV5x7dtaHW/30IeIcTnGNTucH5/tbnOR98Z43d9hs2ExGzDoteuUbpvq60SrkqF5VMl5WytiThyiL7qN8fBdl0T2UJfcZe/qI8fInTNZVoWltZnqwH+PEONaZKewClsP+pzf2aSQf/lXAsYlrtNmkc3of8U0hic/TA0jcgLgR6/QUpgklM4N96NoVqOurGSsrZeThHYav5zOQe5re7CN0Zx6g++heuo78RvfR3+g+tpfuzN/pOXOUvrwzDN64zJvH9xmveIZG/orprlYMrwcwqwS0aTe0d+7yvklf9gUki8UiSex7P74JpLdghGVnhWUd2MxGTKpxprrbGK94wvCtK/SdPUH3od107NlC2441tG5OpWV9Eoq18SjSY1GsjkGRFk2zR6tjaE6Po3ldIoqNybRuS6d992a6Du2m/3wmI/dvMFlTwXR/NyYRkiYTDofjbch4rsv7hv9s/98CSYCx26xY9NMYJ5RM93RIoTTy4Ba9507Qvm87LRuTaUqOoDEhkIaYJTRELaYhchENkQslySMXItQQsUCSLGIBsvAF1If5Ux8m9hfSEL2MxqRQWjaspOv3nQzknGb08V1U9dVM9XZhnBjDatDjsLvCRoDy5fG3QxIX4bTZsMxMMT3Yy3jFU4YKc+k5up/2nRtQbEimKS2GxqQwGuOCkMcslQDJIhch9BZS1CIXJDc08boAVR8uIPkjC1tAQ7gAuZjGuECak8NpXZ9I+8519Bzfx9CNS0xUl6MfGcZqMko5C1yJ/XOw/h5Is678I1oau1GPaWwUXWsTyicP6TufSfvuLTSnxdMYtxx5bCDymGXIo4WWIo/ydtF7kKLePf8AUqg/DZL8aAj1Qx7mhzxiAfLoJTSviqb9ty3055xm/EUpU13tmFUT2AUsu/1trvwzV30zSJ4Yl7bOWZwOp5Q0Z4Z6mah6Tn/eaTr2b6dlcypNq6JpTAyhMTaQxpgAl0SoRC+lMWoJ8qjFyIVzPiKPs6Rw83bSe5AawvwREiHZIM6bFIpi/Uo69+9g8MoF1PWvMIy+wSpKB8enk/rfAMmJ3WLBrNVIeUD5ooi+3JO07lhLY3I48oRg5LFuMB5AYusFqdFXSG9zkj+yj0EK9UcW4ke90HI/ZBGLJVhtOzcwePkik1XlzAwNYJmZlmo0zwf9vqO+GSRxYvEmIkmbdRo07QpGHt+l8/g+mrek0pgSiTw+GHlcoMtBsYE0/YmTvjUkAUomIIWKpC9AhdG6eRW9Jw8xXvaE6cE+rPpp6do/BuqbQhJFoWVah66nndePbtOReQD5+kTq4wKQxQQgjw5wuUjA+RaQPhdubie9hSRAeWBFLaFlwwopR4qCVT/cj83oavkEKO/HN4MkTiwKN01PB8PF92k99CuyNXHUJgTzKmoJ9VFLkEUvpUEkae8w8+x/Ybh9LnFLOWkOpPnIlgv5SSEoC/WTWkFRi/VkHmS88jkzI8PYjIYPuh5fDUkwF/0um9nE1NAAQ6UPaDmZQd2aeKoiF1EdsZCaiIXURi5+D9Syd0k7RiTtL0vcXwVJgjUPWeh8GiIWSnVVf94ZJmoqMIyNSjWdAOMx1FdBkgAJB5lMzIwpeVNdTuOJA7xcE09lXACV4QuoCl/gghSxiDovUK4m39P0u5v/j5QA77dwf966uZt+0fxLJYA/cpHMRT6ScpLHSZ7tPGTL5yELmU9jfBAtW9Lou3gSTYsc87QOu9WK0+mqo0Tr95e7Jc7ZWWxOBzqtmt42ObJbl3ixOYUn4Qt4HupHeagfL8P8qQ5fwKvwhdR6gWqIWuqujTygvGqkt9X2h2XAHEhzWrf3IIW6IL3LRx44nq0bUvBPrpYxJoC2Xzbw5tFddL1dmKem3nZjvgqSY9aJ2W5laHSA4qe3uZb1K3dTw3i8/CeeLJ/Hi5B5VIT6URXmT03YXFCySFE0vgMl9htEIRkpuiOeLomosl3ywPFs53ZLRAnggiScIyS5yFMCLPejPni+JFnwfCQJFy2fR33wT9SL/VA/mlbF0HX8AKMlD9C/eY3d7hpJ+CpIAtCEQUtdTwNn7p3i94NpXFy5jFvBP/A4+EeeBf9EWcg8KgWo0Lmg6iMX4w3KBckNKnoJDbEByBOX05QSQdPqWJrXxtO8LkFS09o4GldHIU8NRbYyAFniImQJC2iI93PLH3mCS7J4f2RxfpIa4vwQksfP99I85HFCP9GUFkDbb6kMXj3FVE8zVvMMDodNctQXhZunjhBbnWkGxXgvN5uL2X7nAOmHEzmwaikXQn/kTtAPlAb+wPPgn6gImcfLkPlUC1DhC96FndtN7wC5Qk7UUnIBZ+NKWvZspf3YPjqzj9J1IVNS59nDtGXuRnFoPfLf4pBtD0a2ZRGyTf40bPanYYs/8q0LvCSe+9O41Z/mbS4ptvkh1CK03Y/W7X607VpM58FQhgp2oG19gnlqBIfV+NcgiSEPh9PB6PQkxT3VHHmZz8pbO4jOTGD9lmAyEhZwJeRHHgb8iydBP1AmQC13gwrzn5OfhJuk0kA4Z0UYzWsTpOq8PWMXnWeO01WYT8/9u/QUF9Hz9Imk7pJHdD+6Qdfd83QUHqQtZystp5NRnIik+UggisOLaRE6IrSI1qOLaDu2iPbji+g8sZiuzMV0Zy6mN3MxfVku9Z9czMDpJQyeXcabW+loGi9jHJdjN2lwOOxflriFg6QxIYedbtUQ52V3WP8og6hrmwg9t5LYg7Fs2hRMduQ8bi39jscB3/Ms8AfKgn6kcvk8qkL9PshP9THLkCWF0LRlFR2nDzFw9ypvKl8w2ihnuKWDvtZeOhT9tDYP0NrcT4eil772LoY7FLxpq2VEXsRg+Xl6H+6i62oCnXlBdOUF0J2/lJ78pfReXkr/laUMFC5j6FoAr68HMHozkLFbgYzfDmRC6E4QE/eCmLwfjOrJSnTygxgG/8CmF7nJisVi9nXQTTSJTqx2G9NmA/UjbewvO0/MzW2EFq4lKDeV5adXsnJvFPuTFpIT9C/uBHxPybLveR74A+XBP70LO5HIRWsXvQxZShRNO9bRdvoIvY//oE8mp6tjGEW3mto2HWXNUxTLdDysFdJSLNNSptBS16GmtW+C3r5ehjored1QyOCLvQw8SmPwfhRDd4MZvhfEyP1ARh8EMfYoiPHHwUwWL0dTGoLuSQhTT0OYehbC1PNQl16EMlUZx1T9RvTd57HqOrBZDZjNRt8gzeIaXdRbTAzpxijurmJb0VFCC9YSfGU1QfmrCMpJJfpoPBvWB3Ioej6Xgv7Fg6XfURrwL14E/egOOz8pP72KXEJdYihNOzfQfTWXwcpy+hXtNCpGeFg1QU6xmiN31Px2VcPOAg3bL7u084p4TcXxe5NceT7JU5mSjp5B3vQ3MdpehLI+G+XzdYwVRzJREoaqNAT101C0z0LRPQtj6nkY02VhzJSFoS8PY0aoIoxpSeFMv4xm6lUS+rYMLKo6bCY1ZqPeR0juWQONcZpGZTcFzY9Jv7+XoEtpBF1a5VYaYadXkLQ7nG2rlpAd+iM3l37Ho2Xf81SEXfBPVC6fT1WIP68SliPfmk7b2UwGXlbQ0zFAXcs492s0nLivYdslNaln1MRnqok5riH6mEsxx9TEnVCRdnaSXQUqzhWpKWnQ0NylZGigk/HuUiZlh1FXrkFbHoeuLJzp8nBmKsLRV0Sgr4zA8HKu9FUReDRTHcl0TTT6ll+wKJ9inRnGbNB9GaSxGRXP++vJrCkk+c4uAi+tmqPgC8mEH48nbUcIh2Pmk7/sO+4s/Y6iZSI//Uh58HxehvhTn55A+/ks+p6V0tvSSU3zGHmlk+y5qmb9BQ0rT2mJP6El5piWaKGjWqLcij6qIe6EmuRTGjblaDh4S8W1sgmaupQoh1tQdd9B23yYqVdpTFdGMvMyAr1QVQSGqkj01S4ZaiKZqygMNVHoX0VhUGzFNHIbs64Fo34Cs8UsNVjend8PJgJE0nY4nVKo3W57xp4XZ4m/ud0FKH8VgUICWF4KgedFEo/m51WLyQr9gYJl3/HHkv+jRIRdiB8vxajALxvpf3yfPkUH9YpRblWq2V2oIuW0cIqAoiPSrbf7R3REHtERcUTr0mEtccc1rDqj4sBNFY/rNbT3vkY5VIeu9ypT8u1M18Shr47GUO0B4gJhECCEaj2KxlgbjbHOLcUGTEO5mCarMM6MYLaYfINkdzrpUY+QI/+DjY+PEHVtM4H5qQRe8pJ4npdCeFY8yT8vZ+eKBZwL/o7bi/6XR0u/41nEIqrT41FkZfC6rob2rjFulU9y8KaaNec0xB0X7nkHyANKbCMkQJ6tC1TUUQ2xx1Wsv6ji5AMNRXUT9A0OoXtdxlRrBtP1q9DXxmN8Ff1OAoZHAkq9UAxGWSymBrda1mHqz8I0VoRxegCzxfh5SFJfzeGgY3KQrFfXSLm/l/DC9R9CcgMLPreC8Ixo0jcFcjziBwqX/C/3lv4fT2IDqN21kfbCPAZb2qnr0HHygZZ1FzQkZmqJEm7xcpH3/lxILkeFH9YQdkhNYqaKrflqckrUKHrVaJTN6DrPMd24FYMsGWNdzDsJIB7JBJwYjAKOPO6dWtIx9R7E9OY2xqkezGYx1Gv3jrYPF3EJSFaHnZbxPg5V5RN/e4fU9AdcSpnrpEupBAg35SQTdCaJpL0R7Evy50Lgd9wQkJJCacw6SGfRI9qb+yiV6dhzTUfSSR2xx+cCehtWcxzkcZKO8MNaPJCijqhIyprk9xsqatq0jI92oe29yUzb7+gb0zE0xEpOmeMWuQDjVmMcpsY4zI3x0tbUkoapazem1wUYtZ2+QXJ1aG00jXWzv+ICUTe3srwgnT+DFJCXQkBuCtHHY9m0YRlHoudxOeh7SlOjabl0jq7KaurlQ9yq1LI1XyeF2Nvc43aSL5DCDmkIzVATlqEi4tAkP19S8USuZeh1P6qBEma6T6NXbMAgj8Po1lvHuMEIOBKgpnjMTfGYmuIwtaRi6tyBcSgXg7bdR0hOJ0abhYbRTva+OEvE9c1SfRSQ/zEnpSBeF6BCshOJ2xvOlrVLORv+E8XpCbTdvkqHTEF5/Qh5zzRszNFIrZd3aH2YgzzOEe55Jw8kD6gtuWru1YgEPsj4UCUzfXno27ZgaIrH6HHJn8ARgFyQ4jEpUjB2bMM4eBGDps03SHanA4PNTMNoO3uenyH82iaCL6+WYMxJ3FK4uSEJgBdWsDwzjpRdoRxOWMDdTcm0PLxDR1MnT+tGOV+iYd1FjdS8fwkkAWeOJDep2XRRzY1KDY1dw4wO1TIzUIi+fRvGZuEQt3yF1L4F48B5DJrWvwIp2wuSV8vm3cq5YQXmJhN4fgWxh2LYvmYZub+kIS++R0dzF0/rlJwr1rL+wtwm3wPr/UTtcdAc93jBCs/QsOmihusVWuRdrxkdkjEzeA19+3YXpGaXUzyO+dRWOMn0pZBEz98oOamDvc/PECE5Kd2VpN+D43GWFHIi7PJTCD+VQOovoRzNWMfL0ju0NrbzvH6UnCdaNlz0HZI3IBFiUpgJUBkawjPUbM7RcKtKi6JH1Eu1zPQXYGjbhlG4SEDyFZSA1LEV4+AFjL46SRSSZpuVptEu9pWdI/L6FpZfEZBSpOQtEvinFHR+BRHHYthxdhNFxddorGvgZeNrrpZr2JwnuhzaD5p+bycJF30MkAeUBOugiq25ah7VaekZHGJisIKZnhwMLZtdLZY73D7lINffROJOwdi5DePQRYxaH3OSmDWw2my0KHs4WJFD7M3thFxZ4zOkwNyVBJ5LZHX+Fi4/zqWipoLa1kEe1GnYWaghLlOAer8EmNvcfwpSxGE1scdU7C5QUdasZWSkD3X/Y2a6sjAq1v8FSKkYu3ZiGM7H6Gvr5ikm2ycGOFZ9haQ7uwgrXPtJ98xxVn4yAlRSwWYOPsjidtUjGnt7qWzVknFHQ3K2qLZFt2Pqvcr6XasmIH0MVEiGAKQm/ZyKrD9UNHSqUSnb0fUVMNO+B2PzakyNn89HbxO7KAFaV2Ps2Ytx5BoGXZdviVv03US3pFv1mjP1t0l/8DvhVzf4DskdjpEF69lwex/ZZYXU9bfS0Ksi56maHQUakk+5K+73ikfvhP0+JFFtCxelZqvZf0PNrcpJugZGmVLWMd1zGn3LJozNyVLL9rkwmwOpbS2m/qMYlfcxTvX51i0Rk3UO5ywDWiUFihJ+Lj1J9PUtLMtP/iwocYxHyy+nEV24iV9LsnjWVUvT4ChPmlRcLNGwKVf0wzREig6sVy30p5AOiWNFh1jN9stqrldokHUoGRnpZvp1CfrOAxgVqzA1J0n1z+cgSUndk9zbN2IeOodp4hmmmSEsFpM0KuvdL/nIKIAL0siUikfd1RyszCPh5s9fDEmEYNDlVaTf30N+wx+86FZQ2z1CSYOaE/fVbMpVk3xaQ+wxDVFHNB8UjlLIZaiJFDnouHCQhm2X1WQ/VlGumKRvqI/x4Qqm+vIxtG13AWpO8K1V8wAS285tmN8UYtbWYzYopSFcMXTt/fgoJDGrOaHXUT3cwrn626Tc/dXnxP1+foq+vpntxSe4UHefmr52mvsnKJWryH2i5pcCtTRkIgbYBJTwOVITfkhF3HEV6efU7L2hobBcy4vmSZp7X9M/UIeyMw9N62/oFasxNyX45iJRbbshmZoTMHXtwjLxCKu+G7NJjdVq+fzqWxFuAtKUyUDn5BB32p6y/sEByRUCgCecfNkuzVvJ8surib2xnV9KT3Kn5Qk1fW3U9rzmadMEeU9VZNxWs+Oyho0XNaw/r2HtOSFReGrYnKPm1ysqyXmF5SpeKMaQdfch66yjtfUWr5v3o2lKx9C0wndAbkim5kSMLSnSCIBV8xKbWYnFPO0bJGEzkbxFrTRp0FEx0MCO0hOEFK6VRgHEjfuuFQTkJUugRMjuLM3ifN09nnc10TgwQkOPiqpWHY9qtVwv15L3RMuFYiEd+U91Uqe4RKbhVbsWWfc41Z09PG+u4NHLHMoq9zAgW8dU0wqMX+Iiqd+WgEmRjLF9I6bBM9hnWrBbp7FYjFil9QE+LFF2jU46MNssKMZ6OFKVT+KdnYQUpH8BoJUszV3h1kqp/xdzYxtbi46TW3+P0s4aavpbkfX3Ud01TFnrG0qblBTJxylqGKe0UUl562uqOweo7emivL2BO7UlXC3L4XbpL5Q/T2O4Lgm9z4Wjd2mQgKk1HWPPPsyjN3AYB3DYLVjFunNfIXncZHc46Ne8oVBRzI7SLER+kVz09uY9ED6/FY4Kvpwmzd2l3f2NncWZHKssIK/+MfcUVZR0NFHW3UFlTw+V3T286GjjsaKe63XPyH5xk30PzrD56m/sv7aBopJUOquSUMniMYpax92r/2yr5jlO5KT2zZiGL2JRV+KwTkgDbSIffREkD6gJvZbKwUaya2+Sene3FHLLRMj9BVCu/1kp9QPDCzeQencPO0qyOFp5iYv1tylsfCRNp99sKuZK/R9kV15lX9EZ0q/uI+nCRlacSWTfpWgqn8QyVhfHtBhhbIr7snzUlIhZkYy5ew+WsYfY9N047TPSkK0A9MWQBCiD1cSQVklx90u2Fx8ntGCdNJT7JZCW5CTxTsJ1K6VzhF5ZQ9TVjSTe2EbK7Z2k3f2V1Xd3s/rOblJu7CTh8hYiz68lMCuZqJPx/JwTw+U7MbRXCECucSOf3SNcJEYkm1diat2Auf8UVk09DquaWadYp+SUAP0lSHannRmLQerwnqy5Stq9vYQVrP0iJ70D5A3LvZ/r9VpuEotzklh8MZGFZ+Pxz4ph/tEI/DJCScgK4/T1aCqexPLmlRh6/YIm3x1mUqXdsgZT90HMb25jN/TjdJiZnXV91eIvO0ksnBBT3sPSbG41R1/mk3Tz57e5aUlu0meBeSCJm/fWkpxEhBa/lQvQovMJLMiOZf7xSPyPhLHsSCibzkfwuCiWgVfxaBuEK7wT8ef2XXnLKJr9jh2YRq5h1TZgt0zidNqkaf2vcpJo6cQJdCY97ZMD3Gt/zs/Fx4i8ukEKGQFpyZz8JKB5ucMr1LwBif0PISWy6EICC8/G4X8ymnlHw1l6NIyVp8M5cTUKuZipbUzAIAB9KSTFSgztGzH2Z2FRvcRmeoPDLhaYiubedY9/2UmeBG5x2NCaZmhSdnFBdodNjw9LU00iPFygPGDc7nC7xgNirmO83eO1fzGRRefjWZAdg19mJD8dDiMyM4yMgmjJRf018V/Y5LtCUgz+G1vXYew/gXnsEXZDH067nlmnTQIk7vGrnCRBEidxz+wqZ9S8GGggu/YGa+/vJ+zKWgLzU1ygvMPHE1ru1z4L6WICiy7Eu1x0Khr/ExEsOhpK2tlwrv8Ri6IyngmZa+z6S5K1SSRqkYd6fsesvId1ugWnTSPlIeEgz+OrIXmDMljNjExN8HKgkcyqQheogrXv3CSF33uueptzvFzj9doiD6BzcZKL5p+IZPGJcKJOhbH3SgQvn8UxJktgWsyCeGodsfXuqHrvexK1OF4CdAjz6C1sMy3u1swsPva3LhL3900gSaDcbrLYbAxrxyjpriGrulDq20Vd3UDQpdR3sLxd5QXkXZJ2AZMAXUxg4fk4FpyJwf9kFPOPRbA8K5wtuRFcuhdFZ1Uc+qYE1/i1D5CkjqvodrSux9RzUAJk1TXgsE4yOytCbC6gbwrJA0pQ11tNvJ4ap3qoiQv1t9ledIzoqxullk4KrYsJLBYO8UELRZidi8U/Owq/rAjmHw0jMTuC83eiqXkRy2idqKzfc5E3LI9zxDHNCRgVie4knYlZ+Qe2mVacVhWzzg8dJO5JPL6Zk9znc51UlAYOG8oZFVVDTVyS/8GukkxW3NxB2JU1LMtLlmqez0ISgNwu8jsVycKscIIzw9mWG0lJSSyDtfHo5J8G5BppTMDYvBJj61oMYkZ24CTm8cfYpgUgkYPE/P67HOR9L38bJM+KOJPNIi1hbh3v41HHS7KqCllzf79UmQtQAtLii/GSqxbnJEg10VtwHkCSi6KZnxlB4MkI0i9GkX0rhsaKOLTyeGlW9oP843aWGNM2NsZJwyWGlvUYug9iGrmBRV2N3diP06Zl1mn5aIh5g/pbnCTeQHwunq9VTJuN9Kje8KxXRvarm+wsyWT13d+IvbaZ0Cvp0jId0ZUR9ZEEyRvQmWiEi/xOhBOTHcGhazEUFcdJLpJmZL2TspihlZQojWkbFekYWzdj7NiDsfektCDLomuUxoecDuPbOuhTLvrbnOT9KQhQNoedKbOBkalJWsf6edFbz2X5Q34vu8Dq+/uIuLqJwLxUF6T3AM0/FYl/VjgLT4SQfiGc2w9jaa9KkHr5UmvmhiQtcBBz/c0JGBQpGNo2Yeg6gHEwD/NoEVZNAzb9AHaLCoddAPp0iHnfw9/mJO83cY1BiS6MHaPVgnJag/xNFw87KzlTe4s9z86w+WEGabd/JenGdmIKNxJ2aQ3BOaksO7uC4DPxxJ2NYf/VeKpfrGSiIZXpplRMijRMYg1R6zpMbZswiqnsrl0YezMwDpyV1hWZVTVYZ/pwWLQ4HaKzape+ei9Sgq+PfwskcTFSF8ZdJoiRTVGhj0xP0jk5SN3rVp50VXGjqYjsmusceH6ebY+OkX57H4lXfmb1lY3sv7mOG0Xr6Xi1EZ1iM9Nt29F37JLcYug9gXHgAqaR65jHi7BoqrBNt2A3DuKwqNwVtFUKL3EdXwJIXPu/DdL7n5r4HB3uRWFiTfibqQnax/p5OdDEw45KChqLOFdzi+MvLnPmxUXuV5+jXn4WZedZDP0XMAzmYhy+gnHkFiblY8yTlVh0TdiM/ditEzhF38vdQfXdM+9fpev5fwySeHvxiYqFYSJniTCcMukRA3miau/XjNI9OUy7so8uZQ/DE91MqrswTHVLg2E2fY/UzxJusZtGsFvGcVg1bteIIQ47uDuoH79131/9j0LygJICQPotgXf9QLE4QwwRC4A28fsC0reFbDic4tchxC/biGEMIfG9fvGVdSFPtfy13pkLUED6t/ygy9y3/fNn4vakvOH+WR/ReRbjVgKAt1wu8YYi/eefn/gr/iLl03/nTwN9xbX+V/7rBzO4/5VX+R++qH8g+fAB/APJB0j/DyR7ljLYlsaAAAAAAElFTkSuQmCC;" vertex="1" parent="R3b1SJ7JTnmB82uJPPgd-1">
          <mxGeometry x="90" y="90" width="28.82" height="30" as="geometry" />
        </mxCell>
        <mxCell id="DQR_X5v0vNWuRj7i9vAl-3" value="" style="shape=image;verticalLabelPosition=bottom;labelBackgroundColor=#ffffff;verticalAlign=top;aspect=fixed;imageAspect=0;image=data:image/png,iVBORw0KGgoAAAANSUhEUgAAAEwAAABGCAYAAABmDHJNAAATaklEQVR4Ae2b93dU17mG8+/cOPFKnJtcx3Ec35V7k2BcwNjENtVgbGPTJFFMMQaMDbgDxoRuikASEiDTEVUVJKGGeht1aTQqo9HMnLP3Ke9d7z46llCQpZEE1z/orLXX0czs057zlff7NvwCE1tEBH4R0eyJyZgAFqERTACbABYhgQinT1jYBLAICUQ4fcLCJoBFSCDC6T9LC7NtgOPnuD1yYARhWoAmbXQHbbR22aj1WihvtnCv3kJBnYV8T/8oqrdQ0mihqtVCQ4cNX4+NoG5DmoD1/wD1kQNzYbX5CcXEhTwDB65LbE2WWBMnEH1YYOkhgSWHBJZ9L7AyVmBjksDOSxJxmQZSy0x42i30aA60R22FjwQYrUoYQFfQRl27hbu1Dqh9KRIbTgq8s1fHtK80/M9mDU+v1/DHdRqeXKvhqXUant2o4fltGmZ/qyHmiI4vz0okZhlILzeVVbb5bYSFraztURjcQwdGWJYFdARs3PWYiM+UWJ8gMG+Xjmmfa/j7xxr+sl7Dk6tD+N2qEH6zIoTHlzvjN8tDeGJlCL9fHcLT68L46wYNL27R8MY3OqK/F9h1WSLlnoHGDgvCcKA9bIt7qMAIK6QDjR02MitMHLwmseKojslbNTzxQQi/ig7hP5aG8MtlITwW5XwmrN+ucAaB/TrG+Y1z3Hn87tmPNMz7TsfWZKHcurzJUjHRsB5uwnhowNzg3uCzcSbbwOYkgdk7dPx1o4bf98EiABcYIfx2ZQh/WBPGnz/S8MxHdMkw/nO1Y20EOhDaEytC+PM6DVM/07DkoI49KRLF9ZZKCIT2sLaHBiwkHMu6es9UcerVLx23cx+alvRfq0PKzaZu0zBju44Fu3UsOqAj5ojA8qMM/joW7tUxZ6cOHv/cJxqe+VBTbuoCpMv+9wYN7+7VcSLdUJmW2ZcZ9GHEtIcCjNbV3GXjXJ6Bj5OEeljGqMdj+qwkKoQn14Txylcalh/VseeKxNkcA6mlJnJrHElBeZFXayGrwkRKoYnYNInNpwTe2q0rQL9e3u/GhPa/HzvQeC6658OKaeMOjPrIH7KRXWOq+PLaNxqeWhP+Mf7QHf++2Yk/n5wWiM+SKmu2dDnuRNmhrIPJwgZ06WTXihYLl4sM7L4sseyQjqmfa/jTOk0lCFoboT27QcPiAzrO5xlo6LAQEuNvY+MOrCdsK6F5PM3A/F06/rQ2DAZvPhTdcPIWDR/GC8RlGMipMdWDUW5owoYbsN3H5J4ZlpIkoNmghChttHC1yMSOCxKvbdfxhzUONCYQQpvymYbNpwUuFhpo7XbPNH4RbVyB0RWbOm2cvWtgfbxQkuGXfcGalvXcpxqiDutIumMoDRUIR/5AtDiv30ZauYlPz0i8vl3H0+s0PBYdAq/19FoNs3bq+OaCVC+OsMezIhg3YIRlmEBxg6VUO+MT45YK8lEh/G2ThtXHBRIyDZQ1WSAszo90o8URWnOnrcTrzosS077Q8PiKkIJGSfLMeg1LD+q4WWIqsUxo47WNGzA3dt0qMfH+foGn1jquQrlA4Tlrh46jtwwFtCcUuWUNfmBCa++xcaPYxMpjAi9u01Tgp2yZ9Imm4tyVQgOMjXT38drGDVhQs1HTZuFkhqGUuBu3lCtu0bA2TiCz0gRhEe5YN9fSWJSfSHcy6IpjOqKO6Fgdp2PXZaHqzgafhZD+MwTG0ud2lYmdFwVe2hbGY9FBPBYVxF/Wh/H2Xh37rknVlRgrqMHHU3PlsYgvMHAiU+JImkTcbYmLRQby60w0dbHWHD9NNi4WZts2mjotnMkVWJcQxqQtQTy+ohe/Wh7A81tD2HJGx9V7hgrWgx94rJ/dor6py0K110Jpi4XiFgtlXgsN3RY6Qza0vsA/HnY2KmC8sLBs+KWJFk2iJqjhVmMQOzL9eP9kJybv8uGpbT78cUsHXt3bhS9u9OBSVQiV3QLd0lTHjvXmKUF6pY32kA2P30ZJh4W8Vgu3m0yk1pu4WWcird7E7SYLBW0Wyjss1PU480OGDXOUlUDEwPigpm2jUxoo7AnhYls3Dnq8+LS4CVGZ9Xjzai2mn6vB1NM1mHKqFjMu1CE6sxFfl7QhubkbBT0hdEhDnWO00HgcYVV3W7jZYOJQsYFttyU+vCmxMkUg+pJA1EWBmMsCq65KrL8l8eUdiWMlhprfELAQ7oMWqYWPGBhv0rBt9EgTnpCOrM4AEhp8+KqiGSsKPHg7uxJzMsoxM61UjRmppZhxqwyz0soxP6sSMfm1+KK8GXENPmR2BtQ5aKHSGllbhtenngoZQHOvjfw2Cz8wZuZKRF8VmJksMDVBx+TjOiYd0/GPo87++RM6Xj6pY26yjpXXhJp/ocbEvXYLbUEbYYMGMHJsIwZGWL2GhbJAGPENPmwra8QH+TVYlF2Jt7LKMSejDDPTSzEjraR/pDrwZqeXYX5WuZq7Kr8WW8saFbiSnpBya0Ib7p4JS1pAQ8DGuRoTX2cbWH5F4s1kgVdP6njxhI7nYh1QhPX3I/3Q+P1LJ3RMP6ljfrJA9BWBHTkSqQ0mGgMOtJEiGxaY+2YZe0p6wkhu7sTG4nq8nV2BORkEVKwAzUovxZzMMryZRYtyBv/md/zNBcljeOyG4jqcavIhvzuIVk0ibFrKTQffOK9PC+gRNmq6bVzxmNiaJbHgnMDUeAeKC2dyrI4XTujq+5cTdEyJ7wPZZ3GcR+t7IU7Hu+cEvss1VKxr7HESw0gsbVhgqgC2bFT2ajhW14719+rxnnK/UsxMd6yJ+7lZZXgnpxKL82oQU+BRY0leDd7NqcTczH7r41xCW5hdgdWFtdhT3YqMjgCa+6ANBsaH0EwbFV0WYksNfHhLYh7dL07Hc8f6LYmu+PJJgRnJAm9fEFh4SeCt846rEtykAdZHaC/H61jwg8BnGRLpDaZyT2bT4bZhgfHNN2oC17x+bCqux/zbFZid4cCaRWu5XY6Yu9XYcK8OX1Q0YVdNK/Z5vNjv8eK7mlZ8WdGEDUV1ag7nqmPTSpT70vpW5NfiUK0Xab4A6kMCQdNSsdK1rG7dRhklS5WJNTclXj8t8MLxflBTTuiYc1pg8QWBdTelCv7f5knszpfYcVcqa1xzXeL9CwJvnBLKdd0YR1d956zAwQID2S0WOsP2sMt7wwLz6hLX23uwq7oFUXer74M173a5spKjnjbcbO9GoT+Iqt6wkhmUGvy7sDuIm95ucM6aQg/eIvA+F2XMY/yLuVuD7eXN6qXUhnQFjZbF9F/aYeHQPQMrr0vM7IM16ajjirQqWttnmRKJ5SaymiyUdViooibrdvbF7Zb6PqHMxLpUidnJDjTXjRn/oq4IHCg0UN1lqyVA1sVDbUMC4zEM9NW9Gr73ePFBoQcLbperWES3eudOBdYVeXCgtg13ugJo1QQ00wJFrLvxb37H37I7e3HY41VWujinEm/2xTZCm51RhtUFtTjd1ImSgIYuYaJLc7RVUoWJFdckXk0SKgO62W9aghOHtmZInK8xUd5pqTg34PLqNqjXAsKx0rhyAxvSJeYkCzzPbMr1heO6OvdHt6TSbD1c8/yJFveQwAiL7pHfFcTnpY14+44T5AmLbsUMmdjQjgJ/EG26VGCozwZv/I7QfLpERSCMy61dKsMuyq1W0AiMrvlhkQcXW7tQ1avDq5ko8VnqrS+/KjHj1P2wGLTfOy9wIN9ARoOJOr+toDzoQXlLhObXbdT6bVyoNbH6hsT0JAcaXwChLb0o8EOlidpuC0H578/hPteQwHTLAt3xlteP9YUelelmppVgbl/A/qKsETmdAfilobSUe8Kh9pZtg+ekyyW3dOJL6rf8GizNrVJuvbuqBRm+AMr9Ene9pnIxwnolUYDZz7UsutCiiwI7smkRplL6+giKeVeWVHTa2FNgYPElAVopXZPjrWSB/fkG7rSY6NRGASxgmKjoDeNMUwdW5VWDsCgNGLjpisfq25W7RiY8qeVMNIaFEq/7PG34troFp5s7kNkRQFVAILfNxJ58AzEpUgXpgbBejNfVgx67Z+BuiyM8CYswhts4hfMoVq/VmfjmjsTc00LB+tthHTOTBD7NkErjtfQOfcIhLaxLGMjt6sVRjxfRuVWYkeroLQpVZj6WRNRPkW7OjdvKetM6A0hp96PQH0ZZt0ROq4n4MhPRKVJJBBcWs9k/E3UsuSSwK9dQNWP3KP+pgIpnHRbiSwwsPNsPjKJ21TWB2BID9T2jAMaYk+brwd7qFizLqXSApRZjWU4V9tc42sk3ylYmb0ezLLQLA41hiYZeA7ebTXyXJ1XGep0Bvs8NCWtKgo6llwViix1YLLjZUxuJZQ1+odRatKBLNSaWnHeA0SVf6bvG/kIDtT+xFjCkhbXrEjfb/fiuqhlLs/uB0dqOeLzI6QqCVjjajQ8rTMDLflarpWAQCutBQmLM4v61JIFlVwR25xmqfmTwflBwH+l98JodYRs36kwsuyjUdQiM8ez9SwJ78iVquodOkz8JLNXXg38NsjACO+xpQ3ZXLzrHAIw3TunAWEQ3o7vR7QbCmpogEHVFIq7URIHXgo+W1bcMN1JAg+cx5vnCNq55TCy7cD+wRZcE9haMEliHMFRH4mBtK6Jy+mJYajGW5lSCGe1me4+KQ4NvaLjPAy2LsI4WGVjMLm28U+qoNB+rg27JWLY330Ch19FYY7Es976CEqp/Rgmx6Fy/SzL7xqQIfH/PUL+78wfvh7Qwtl7Y74qvb8fy3GrMSHWy5MI7Ffi4pAGJTZ1oCOn3CdXBJ3/QZ9clcppN7MyRSiLwZt1yhbFrWqJA9FWJk2VOG4YuNFbLcu+FkuFOi6UkBKUE3ZFZ8vVEAYrXxAqng+HOH7wfEhhFK/teF1u6sCa/9sfWDTsR0Xm12F3diiJ/CEHDVBXB4BMP/kzLoju09trIbjZxuNBQ9R1FKK3qH0d0FehZ78VcldhXaKDY54hICs+xbrw+obM7m1RhYGOqxIykfgujxPgm28D1OhPen1jVGhIY9RVbOlkdAXxcXK/UuCpj+uq/TffqcaWtW0El3OE2wuKNZDWZ2J7tFMPMTITFt8zYRZFKscq6kLBoDYT1gAJiuMv92++ExRZRTouFbVkSc5OF6pHx2hzvnhU4UWKoCoPl0VDbkMBUrLFslPaEsKuqGUtyq1QpQ/FKERuVW4U91S246u1GZW9YJQB2NlhSDXxA1Z5hlzRgI7PRxIECQ5U17FsNtCyWP6wZDxQZqj/P8mQsluXoPceqCYqNwrutFo4XOzGTls0wwBbRlDgdq1KkSgQUtj/V5hkSmHvBxrCO5OYObC1twHt3Kn4UsPMzy1T3YltZA5KafCprUsEHDQsGO6h91JTuCdpIazDx1W2JheecksS1rOdjdVXXrboucarSVLCYPcdqWU4IsFVGLO20cLHWxFd3pMrGFKluzCSseWeF6vkzuQzXsh4SmGuSXdLAXX8QJ+rbVSybp7oMjpWxH/Z+TiW2lDbgiKcNKa3dyOkIoKg7iFJ/CKX+MO6260jxSOzJk3jnXH/By0BLV2DX4LVTAgRGV2Rfiqs8bMuMZtzzWuAobLOQ22IpvRVfauDzvi7twGzMMDD7jMCmdL4sQ1nhQO9wGQzcDwuMy2nUW2zP7KhoxtLcahCa65pzM8qU5VGfrc2vxaaiOnxaXI8txY3YUtSCjbk+LL8exIIfnC6na1lu7KBL8CFmnhFKza+5IVUjkCtAoxnrePwNCTYNP7gqEX1ZKKuefbq/S8t7ICyK5OUpAsmVpuqh9Y7gnxQMC8xxTRtNYYHzLV34ml2GvBosUAsffb161pmpxSq2sX8/O70cs29V441r9Zh+3osXTwYwKVb7MYW7sLh3b56rOyyux2MwPvF8bNu4Qti9Jl8QF0xmnRZKd+3LdwJ9SDrNw4HW9KC/hwXGgwgtZFpoCOuqvvxXTatqybBzoboYfcDUggiX125U4J9X6jD1TDteSOjBpNjQj9nQvfGBe0JjTBnvwfNyuNfi3y/F6arryrWBUxWmcnvGTCb64dyRLEYEzIXGDNiiCdzw+fG9pw1bS+pV64fq/93b5ZifWY45qZWYca0O08+34qWTfkw+HsbkWE1pLIrSRzKOO7GRlsSgTvlCzUWhysXdLZkS8eWG6tJGmo1HDMyFRunAxmJ5IIR0nx+nGn34tqoZG4rrEZPnwbuZjZh7xYfXf+jB9FMhvJKoYdpJfWQjkSp/9OOVRGo5tpyZSHS1uDv/nMCSKwIb0pwy61yVidxWS7Vw2OqJNBtHBIzQuLm9enY0SgMhXGv3I6GxA/ur27G9uBPbsoPYnK5jU5pQinrDLYkRjVSJDWMYVO8b0yQ2pUl8kiGVQN2eY4AtG0oWtpA8fkv9MwPKDoaaSLdRAeNF2Ktny7nHMJXFsa6s6dVQ4ddR2mGo2MDleKb4oiGGKwHc39VnHjMOg2sCXEGq7LRVf6spYKtlNNcFRwOLzz1qYA96M7Q8Dr69gYNqn0H1vjFgjvp9wOeBx47lb0IZLZgHPd+4A3Mv4t7offu+/wPJTKRG38PcN2ecv3PvZzz342ph43ljP9dzTQCL8M1MAJsAFiGBCKdPWNgEsAgJRDh9wsImgEVIIMLpExY2ASxCAhFOn7CwCWAREohw+v8BgwvqqtzbftEAAAAASUVORK5CYII=;" vertex="1" parent="R3b1SJ7JTnmB82uJPPgd-1">
          <mxGeometry x="89.41" y="170" width="30" height="27.63" as="geometry" />
        </mxCell>
        <mxCell id="DQR_X5v0vNWuRj7i9vAl-4" value="" style="endArrow=none;html=1;dashed=1;strokeWidth=1;dashPattern=1 1;strokeColor=#757575;" edge="1" parent="R3b1SJ7JTnmB82uJPPgd-1">
          <mxGeometry width="50" height="50" relative="1" as="geometry">
            <mxPoint x="120" y="220" as="sourcePoint" />
            <mxPoint x="120" y="80" as="targetPoint" />
          </mxGeometry>
        </mxCell>
        <mxCell id="DQR_X5v0vNWuRj7i9vAl-5" value="" style="endArrow=none;html=1;dashed=1;strokeWidth=1;dashPattern=1 1;strokeColor=#757575;" edge="1" parent="R3b1SJ7JTnmB82uJPPgd-1">
          <mxGeometry width="50" height="50" relative="1" as="geometry">
            <mxPoint x="599.9999999999998" y="220" as="sourcePoint" />
            <mxPoint x="599.9999999999998" y="80" as="targetPoint" />
          </mxGeometry>
        </mxCell>
        <mxCell id="DQR_X5v0vNWuRj7i9vAl-6" value="" style="endArrow=none;html=1;dashed=1;strokeWidth=1;dashPattern=1 1;strokeColor=#757575;" edge="1" parent="R3b1SJ7JTnmB82uJPPgd-1">
          <mxGeometry width="50" height="50" relative="1" as="geometry">
            <mxPoint x="280" y="220" as="sourcePoint" />
            <mxPoint x="280" y="80" as="targetPoint" />
          </mxGeometry>
        </mxCell>
        <mxCell id="DQR_X5v0vNWuRj7i9vAl-7" value="" style="endArrow=none;html=1;dashed=1;strokeWidth=1;dashPattern=1 1;strokeColor=#757575;" edge="1" parent="R3b1SJ7JTnmB82uJPPgd-1">
          <mxGeometry width="50" height="50" relative="1" as="geometry">
            <mxPoint x="439.9999999999998" y="220" as="sourcePoint" />
            <mxPoint x="439.9999999999998" y="80" as="targetPoint" />
          </mxGeometry>
        </mxCell>
        <mxCell id="DQR_X5v0vNWuRj7i9vAl-8" value="" style="endArrow=classic;startArrow=classic;html=1;dashed=1;dashPattern=1 1;strokeColor=#757575;strokeWidth=1;" edge="1" parent="R3b1SJ7JTnmB82uJPPgd-1">
          <mxGeometry width="50" height="50" relative="1" as="geometry">
            <mxPoint x="120" y="100" as="sourcePoint" />
            <mxPoint x="280" y="100" as="targetPoint" />
          </mxGeometry>
        </mxCell>
        <mxCell id="DQR_X5v0vNWuRj7i9vAl-9" value="" style="endArrow=classic;html=1;strokeColor=#757575;strokeWidth=1;" edge="1" parent="R3b1SJ7JTnmB82uJPPgd-1">
          <mxGeometry relative="1" as="geometry">
            <mxPoint x="120" y="120" as="sourcePoint" />
            <mxPoint x="200" y="200" as="targetPoint" />
          </mxGeometry>
        </mxCell>
        <mxCell id="DQR_X5v0vNWuRj7i9vAl-10" value="HTML" style="edgeLabel;resizable=0;html=1;align=center;verticalAlign=middle;" connectable="0" vertex="1" parent="DQR_X5v0vNWuRj7i9vAl-9">
          <mxGeometry relative="1" as="geometry" />
        </mxCell>
        <mxCell id="DQR_X5v0vNWuRj7i9vAl-11" value="" style="endArrow=classic;html=1;strokeColor=#757575;strokeWidth=1;" edge="1" parent="R3b1SJ7JTnmB82uJPPgd-1">
          <mxGeometry width="50" height="50" relative="1" as="geometry">
            <mxPoint x="200" y="200" as="sourcePoint" />
            <mxPoint x="280" y="120" as="targetPoint" />
          </mxGeometry>
        </mxCell>
        <mxCell id="DQR_X5v0vNWuRj7i9vAl-12" value="" style="endArrow=classic;html=1;strokeColor=#757575;strokeWidth=1;" edge="1" parent="R3b1SJ7JTnmB82uJPPgd-1">
          <mxGeometry relative="1" as="geometry">
            <mxPoint x="280" y="120" as="sourcePoint" />
            <mxPoint x="359.9999999999998" y="200" as="targetPoint" />
          </mxGeometry>
        </mxCell>
        <mxCell id="DQR_X5v0vNWuRj7i9vAl-13" value="js,css" style="edgeLabel;resizable=0;html=1;align=center;verticalAlign=middle;" connectable="0" vertex="1" parent="DQR_X5v0vNWuRj7i9vAl-12">
          <mxGeometry relative="1" as="geometry" />
        </mxCell>
        <mxCell id="DQR_X5v0vNWuRj7i9vAl-14" value="RTT" style="text;html=1;align=center;verticalAlign=middle;whiteSpace=wrap;rounded=1;glass=1;shadow=0;sketch=1;" vertex="1" parent="R3b1SJ7JTnmB82uJPPgd-1">
          <mxGeometry x="180" y="90" width="40" height="20" as="geometry" />
        </mxCell>
        <mxCell id="DQR_X5v0vNWuRj7i9vAl-15" value="" style="endArrow=classic;html=1;strokeColor=#757575;strokeWidth=1;" edge="1" parent="R3b1SJ7JTnmB82uJPPgd-1">
          <mxGeometry width="50" height="50" relative="1" as="geometry">
            <mxPoint x="359.9999999999998" y="200" as="sourcePoint" />
            <mxPoint x="439.9999999999998" y="120" as="targetPoint" />
          </mxGeometry>
        </mxCell>
        <mxCell id="DQR_X5v0vNWuRj7i9vAl-16" value="" style="endArrow=none;html=1;strokeWidth=2;strokeColor=#FF0000;entryX=0.5;entryY=1;entryDx=0;entryDy=0;" edge="1" parent="R3b1SJ7JTnmB82uJPPgd-1" target="DQR_X5v0vNWuRj7i9vAl-22">
          <mxGeometry width="50" height="50" relative="1" as="geometry">
            <mxPoint x="479.9999999999998" y="220" as="sourcePoint" />
            <mxPoint x="480" y="80" as="targetPoint" />
          </mxGeometry>
        </mxCell>
        <mxCell id="DQR_X5v0vNWuRj7i9vAl-17" value="" style="shape=curlyBracket;whiteSpace=wrap;html=1;rounded=1;flipH=1;shadow=0;glass=0;sketch=0;rotation=-90;size=0.5;" vertex="1" parent="R3b1SJ7JTnmB82uJPPgd-1">
          <mxGeometry x="449.7" y="89.7" width="19.62" height="40" as="geometry" />
        </mxCell>
        <mxCell id="DQR_X5v0vNWuRj7i9vAl-18" value="" style="shape=curlyBracket;whiteSpace=wrap;html=1;rounded=1;flipH=1;shadow=0;glass=0;sketch=0;rotation=-90;size=0.5;" vertex="1" parent="R3b1SJ7JTnmB82uJPPgd-1">
          <mxGeometry x="295" y="94.5" width="10" height="40" as="geometry" />
        </mxCell>
        <mxCell id="DQR_X5v0vNWuRj7i9vAl-19" value="" style="shape=curlyBracket;whiteSpace=wrap;html=1;rounded=1;flipH=1;shadow=0;glass=0;sketch=0;rotation=-90;size=0.5;" vertex="1" parent="R3b1SJ7JTnmB82uJPPgd-1">
          <mxGeometry x="374.37" y="55.63" width="10" height="117.75" as="geometry" />
        </mxCell>
        <mxCell id="DQR_X5v0vNWuRj7i9vAl-20" value="recv HTML" style="text;html=1;strokeColor=none;fillColor=none;align=center;verticalAlign=middle;whiteSpace=wrap;rounded=0;shadow=0;glass=0;sketch=0;" vertex="1" parent="R3b1SJ7JTnmB82uJPPgd-1">
          <mxGeometry x="280" y="90" width="70" height="20" as="geometry" />
        </mxCell>
        <mxCell id="DQR_X5v0vNWuRj7i9vAl-21" value="(idle)" style="text;html=1;strokeColor=none;fillColor=none;align=center;verticalAlign=middle;whiteSpace=wrap;rounded=0;shadow=0;glass=0;sketch=0;" vertex="1" parent="R3b1SJ7JTnmB82uJPPgd-1">
          <mxGeometry x="360" y="90" width="40" height="20" as="geometry" />
        </mxCell>
        <mxCell id="DQR_X5v0vNWuRj7i9vAl-22" value="recv JS,CSS" style="text;html=1;strokeColor=none;fillColor=none;align=center;verticalAlign=middle;whiteSpace=wrap;rounded=0;shadow=0;glass=0;sketch=0;" vertex="1" parent="R3b1SJ7JTnmB82uJPPgd-1">
          <mxGeometry x="440" y="80" width="80" height="20" as="geometry" />
        </mxCell>
      </root>
    </mxGraphModel>
  </diagram>
</mxfile>
